<svg width="80" height="81" viewBox="0 0 80 81" fill="none" xmlns="http://www.w3.org/2000/svg">
<g filter="url(#filter0_ii_193_2269)">
<rect x="0.578125" y="0.789062" width="79.4219" height="79.4219" rx="17.2656" fill="#E8F3FA"/>
</g>
<path fill-rule="evenodd" clip-rule="evenodd" d="M17.7633 47.3271H19.319V59.6826H17.7633V53.6183C17.621 53.3461 17.5381 53.0106 17.5381 52.6463C17.5381 52.282 17.6224 51.9465 17.7633 51.6743V47.3271Z" fill="url(#paint0_linear_193_2269)"/>
<path fill-rule="evenodd" clip-rule="evenodd" d="M20.672 63.2331C26.9349 63.2331 32.0413 62.954 32.0413 62.6117C32.0413 62.2693 26.9335 61.9902 20.672 61.9902C14.4106 61.9902 9.30273 62.2693 9.30273 62.6117C9.30273 62.954 14.4106 63.2331 20.672 63.2331Z" fill="url(#paint1_radial_193_2269)"/>
<path d="M24.8557 63.0172C27.2349 63.0172 29.1636 62.8356 29.1636 62.6116C29.1636 62.3876 27.2349 62.2061 24.8557 62.2061C22.4766 62.2061 20.5479 62.3876 20.5479 62.6116C20.5479 62.8356 22.4766 63.0172 24.8557 63.0172Z" fill="url(#paint2_radial_193_2269)"/>
<path d="M16.3496 63.0172C18.7356 63.0172 20.6699 62.8356 20.6699 62.6116C20.6699 62.3876 18.7356 62.2061 16.3496 62.2061C13.9636 62.2061 12.0293 62.3876 12.0293 62.6116C12.0293 62.8356 13.9636 63.0172 16.3496 63.0172Z" fill="url(#paint3_radial_193_2269)"/>
<path fill-rule="evenodd" clip-rule="evenodd" d="M37.249 42.3249C37.2628 42.3345 37.2753 42.3441 37.2891 42.3537C37.3236 42.3152 37.3623 42.2809 37.3927 42.2396C37.6276 41.911 37.8611 41.5811 38.0959 41.2525C38.4027 40.8222 38.708 40.3905 39.0202 39.9643C39.1087 39.8447 39.215 39.7361 39.327 39.6371C39.4444 39.5326 39.5218 39.5312 39.6503 39.622C39.7221 39.6728 39.7926 39.7361 39.8423 39.8076C39.9584 39.9753 39.9998 40.1691 40.0219 40.3547C39.9556 40.4304 39.8976 40.4908 39.8437 40.5568C39.4112 41.093 38.9816 41.6292 38.5491 42.1654C38.3515 42.4101 38.1498 42.6507 37.9523 42.8954C37.9177 42.938 37.868 42.982 37.897 43.0549C37.9605 43.07 37.9909 43.0315 38.0227 42.993C38.5602 42.3372 39.0976 41.6828 39.6351 41.0256C39.7856 40.8414 39.9321 40.6517 40.0827 40.462C40.1311 40.4826 40.1766 40.495 40.2126 40.5197C40.2941 40.5761 40.5469 40.9074 40.5801 41.1013C40.598 40.7823 40.4392 40.4592 40.1352 40.3327C40.1214 40.2571 40.1117 40.1581 40.0827 40.0633C40.0523 39.9643 40.0164 39.8639 39.9653 39.7732C39.8395 39.5532 39.6447 39.4377 39.3739 39.4432C39.3712 39.2136 39.2468 39.05 39.0838 38.9112C38.9553 38.8026 38.8033 38.7503 38.6375 38.7819C38.5533 38.7984 38.4773 38.8562 38.3875 38.9002C38.3488 38.7723 38.2797 38.6596 38.1595 38.5785C37.8735 38.3832 37.5074 38.4492 37.3043 38.6871C37.115 38.9098 36.9395 39.1504 36.782 39.3965C36.3979 39.9973 36.0277 40.6063 35.6505 41.2113C35.638 41.2319 35.5994 41.2882 35.5842 41.3089C35.4515 41.0834 35.3507 40.9789 35.2249 40.8785C35.4184 41.1095 35.5248 41.4326 35.4709 41.7103C35.4322 41.911 35.3382 42.0843 35.2194 42.2479C35.1918 42.2864 35.1462 42.3221 35.2028 42.395C35.2401 42.3702 35.2857 42.351 35.3134 42.318C35.475 42.1214 35.5897 41.8987 35.6063 41.6429C35.6146 41.511 35.6602 41.4051 35.7279 41.2979C35.9945 40.8827 36.2529 40.462 36.525 40.0495C36.7834 39.6591 37.0514 39.2741 37.3222 38.8919C37.3844 38.8039 37.4659 38.7228 37.553 38.661C37.8099 38.4781 38.2258 38.6541 38.2714 38.9565C38.2797 39.0088 38.2714 39.05 38.2369 39.094C37.6787 39.8103 37.1772 40.5665 36.6701 41.3185C36.6176 41.3969 36.572 41.4807 36.5292 41.5646C36.5209 41.5811 36.5458 41.6141 36.5554 41.6388C36.5762 41.6306 36.6024 41.6264 36.6176 41.6127C36.6356 41.5962 36.6439 41.5701 36.6577 41.5495C37.1689 40.8236 37.6787 40.0976 38.1926 39.3745C38.3253 39.1875 38.4745 39.0143 38.6527 38.8686C38.7066 38.8809 38.755 38.8906 38.8033 38.9043C39.0023 38.9579 39.1294 39.094 39.215 39.27C39.28 39.4061 39.2537 39.4872 39.1473 39.6C39.052 39.7017 38.9525 39.8034 38.8738 39.9162C38.3391 40.6861 37.8099 41.4601 37.2808 42.2327C37.2628 42.2575 37.2587 42.2919 37.2476 42.3221L37.249 42.3249Z" fill="#0F3D63"/>
<path fill-rule="evenodd" clip-rule="evenodd" d="M37.2485 42.3253C37.2596 42.295 37.2651 42.262 37.2817 42.2359C37.8108 41.4633 38.3414 40.6892 38.8747 39.9194C38.9534 39.8052 39.0515 39.7035 39.1482 39.6031C39.2546 39.4904 39.2809 39.4079 39.2159 39.2732C39.1303 39.0972 39.0032 38.9597 38.8042 38.9075C38.7559 38.8951 38.7075 38.8841 38.6536 38.8717C38.474 39.0161 38.3248 39.1907 38.1935 39.3777C37.6796 40.1008 37.1698 40.8281 36.6586 41.5526C36.6448 41.5733 36.6365 41.5994 36.6185 41.6159C36.6033 41.6296 36.5771 41.6337 36.5563 41.642C36.5467 41.6173 36.5218 41.5843 36.5301 41.5678C36.5715 41.4825 36.6185 41.4 36.671 41.3217C37.1781 40.5696 37.6796 39.8135 38.2378 39.0972C38.2723 39.0532 38.2806 39.012 38.2723 38.9597C38.2267 38.6573 37.8108 38.4813 37.5539 38.6641C37.4654 38.726 37.3853 38.8071 37.3231 38.8951C37.0523 39.2773 36.7843 39.6609 36.5259 40.0527C36.2538 40.4652 35.9954 40.8858 35.7287 41.301C35.661 41.4069 35.6155 41.5141 35.6072 41.6461C35.5906 41.9018 35.4759 42.1246 35.3143 42.3212C35.2866 42.3542 35.241 42.3734 35.2037 42.3981C35.1457 42.3253 35.1913 42.2895 35.2203 42.251C35.3391 42.0874 35.4317 41.9142 35.4718 41.7135C35.5519 41.2983 35.2742 40.7786 34.8818 40.6233C34.8307 40.6026 34.7768 40.5903 34.7229 40.5834C34.5447 40.5614 34.4466 40.6411 34.4328 40.8212C34.4273 40.8858 34.4286 40.9505 34.4356 41.0151C34.4839 41.4605 34.3734 41.8771 34.2007 42.2785C34.0984 42.5164 33.9713 42.7432 33.8636 42.9797C33.7959 43.1295 33.7282 43.2808 33.6853 43.4389C33.5831 43.8087 33.6605 44.1634 33.8263 44.4975C33.9188 44.6845 33.923 44.8494 33.8055 45.0158C33.5499 45.3788 33.3054 45.75 33.0305 46.0964C32.6837 46.5336 32.3093 46.9488 31.9473 47.3736C31.7621 47.5908 31.624 47.5908 31.4181 47.4424C31.0506 47.1756 30.679 46.9158 30.3114 46.6477C29.5529 46.095 28.8 45.5355 28.0387 44.9869C27.8245 44.8329 27.5924 44.7023 27.3645 44.5704C27.2885 44.5264 27.1987 44.4879 27.1116 44.481C26.7745 44.4549 26.4056 44.9223 26.4844 45.167C26.5065 45.2358 26.5521 45.3004 26.5949 45.3609C26.8422 45.7087 27.1531 45.9988 27.4639 46.2861C28.5126 47.2554 29.879 48.292 31.0561 49.1031C31.1584 49.1733 31.2661 49.2379 31.3684 49.3094C31.5121 49.4097 31.6792 49.418 31.8423 49.418C31.8989 49.418 31.9652 49.3753 32.0108 49.3341C32.1877 49.1732 32.3673 49.0138 32.5289 48.8378C33.2667 48.0322 34.2311 47.0285 34.9675 46.2215C35.0379 46.1445 35.1056 46.062 35.1844 45.996C35.5243 45.7087 35.9001 46.1033 36.3519 45.8998C36.4886 45.8379 36.624 45.7733 36.7484 45.6908C37.3577 45.2894 37.8813 44.7917 38.3745 44.2597C39.0474 43.5337 39.6581 42.7584 40.2549 41.972C40.3876 41.7974 40.505 41.609 40.5603 41.3932C40.6349 41.1017 40.552 40.7566 40.2135 40.5215C40.1775 40.4968 40.1319 40.4858 40.0836 40.4638C39.933 40.6549 39.7865 40.8432 39.636 41.0275C39.0999 41.6832 38.5611 42.339 38.0236 42.9948C37.9918 43.0333 37.9614 43.0718 37.8979 43.0567C37.8689 42.9852 37.9186 42.9412 37.9531 42.8972C38.1507 42.6525 38.3524 42.4119 38.55 42.1672C38.9824 41.6324 39.4121 41.0948 39.8446 40.5586C39.8971 40.4927 39.9565 40.4322 40.0228 40.3565C40.0007 40.1709 39.9592 39.9771 39.8432 39.8094C39.7935 39.7379 39.723 39.6746 39.6511 39.6238C39.5227 39.533 39.4453 39.5344 39.3278 39.6389C39.2173 39.7379 39.1096 39.8465 39.0211 39.9661C38.7075 40.3923 38.4036 40.824 38.0968 41.2543C37.862 41.5829 37.6285 41.9128 37.3936 42.2414C37.3646 42.2827 37.3245 42.317 37.29 42.3555C37.2762 42.3459 37.2637 42.3363 37.2499 42.3267L37.2485 42.3253Z" fill="url(#paint4_linear_193_2269)"/>
<path fill-rule="evenodd" clip-rule="evenodd" d="M38.0371 43.9598C37.5397 43.15 36.9069 42.4901 36.1318 41.9141C36.1484 41.9979 36.1912 42.0213 36.2244 42.0529C36.5422 42.3554 36.8641 42.6537 37.175 42.9617C37.4485 43.2325 37.6751 43.5432 37.8962 43.8581C37.9252 43.8993 37.9431 43.9598 38.0385 43.9598H38.0371Z" fill="#0F3D63"/>
<path fill-rule="evenodd" clip-rule="evenodd" d="M36.0137 44.2977C36.0344 44.2729 36.0662 44.2523 36.0731 44.2234C36.1035 44.1093 36.1477 43.9925 36.1477 43.8756C36.1477 43.4027 35.9515 43.0191 35.5702 42.7345C35.5122 42.6919 35.4514 42.6493 35.3574 42.6809C35.3933 42.7098 35.4293 42.7386 35.4652 42.7661C35.7429 42.9806 35.9418 43.2473 36.0247 43.591C36.0731 43.789 36.0786 43.9842 36.0095 44.1794C35.9985 44.2111 35.993 44.2454 35.9861 44.2771C35.9957 44.2839 36.0054 44.2908 36.0137 44.2963V44.2977Z" fill="#0F3D63"/>
<path fill-rule="evenodd" clip-rule="evenodd" d="M12.5516 55.3301C12.5391 55.3342 12.5267 55.337 12.5157 55.3411C12.5115 55.359 12.4991 55.3809 12.506 55.3947C12.8555 56.1536 13.299 56.8548 13.8392 57.4954C13.8171 57.6274 13.7356 57.7085 13.6154 57.7553C13.3957 57.8419 13.1857 57.7993 13.0269 57.6246C12.9288 57.5188 12.832 57.4074 12.7602 57.2837C12.5295 56.8877 12.3084 56.4849 12.0887 56.0821C12.0072 55.9336 11.9423 55.7769 11.8663 55.6257C11.8525 55.5995 11.8276 55.5789 11.8069 55.5556C11.7958 55.5597 11.7848 55.5638 11.7751 55.5665C11.782 55.6229 11.7848 55.6793 11.7945 55.7357C11.8387 55.9639 11.9478 56.1673 12.057 56.3681C12.2946 56.8053 12.5295 57.2452 12.8417 57.637C12.7588 57.7718 12.6317 57.7745 12.5074 57.7621C12.1813 57.7278 11.9492 57.5463 11.7986 57.2699C11.6356 56.973 11.4905 56.6664 11.3413 56.3626C11.2542 56.1838 11.1755 55.9996 11.0912 55.8195C11.0691 55.7741 11.0498 55.7192 10.96 55.7178C11.0138 56.0849 11.1865 56.3942 11.3358 56.7118C11.485 57.0294 11.6521 57.3387 11.8718 57.6205C12.0735 57.879 12.6455 57.9601 12.9384 57.7374C13.0918 57.8776 13.27 57.945 13.4842 57.9106C13.6886 57.8762 13.8531 57.7924 13.936 57.5807C14.1045 57.6728 14.2745 57.7016 14.4485 57.6411C14.7083 57.4913 14.7691 57.2713 14.7635 57.2919C14.7359 57.3428 14.6986 57.3951 14.6544 57.4308C14.4209 57.6164 14.11 57.5944 13.9166 57.3648C13.7494 57.1668 13.5919 56.9592 13.4496 56.7434C13.1719 56.3227 12.9094 55.8924 12.64 55.4676C12.6124 55.4222 12.582 55.3796 12.553 55.3356L12.5516 55.3301Z" fill="#0F3D63"/>
<path fill-rule="evenodd" clip-rule="evenodd" d="M12.5526 55.3301C12.5816 55.3741 12.612 55.4181 12.6396 55.4621C12.909 55.8883 13.1729 56.3172 13.4492 56.7379C13.5915 56.9538 13.7504 57.16 13.9162 57.3593C14.1083 57.5889 14.4205 57.6109 14.654 57.4253C14.6996 57.3896 14.7355 57.3373 14.7631 57.2865C14.788 57.2425 14.7783 57.1957 14.7466 57.1476C14.3307 56.5179 13.9508 55.8676 13.6496 55.1761C13.5611 54.974 13.5003 54.7637 13.4865 54.5423C13.4603 54.1546 13.4368 53.7669 13.4161 53.3792C13.4147 53.3531 13.4423 53.3242 13.4561 53.2967C13.4796 53.3187 13.5045 53.3394 13.5252 53.3627C13.5307 53.3682 13.5294 53.382 13.5307 53.3916C13.5667 53.7491 13.8181 53.9539 14.0903 54.1189C14.3777 54.2921 14.6968 54.3059 15.016 54.1807C15.121 54.1395 15.208 54.0735 15.2702 53.98C15.342 53.8742 15.3365 53.7999 15.2398 53.7188C15.1721 53.6611 15.0947 53.6143 15.0215 53.5621C14.8585 53.448 14.6872 53.3421 14.5324 53.217C14.2892 53.019 14.1055 52.7702 13.959 52.4952C13.8582 52.3069 13.7629 52.1144 13.6648 51.9233C13.6537 51.9013 13.6399 51.8793 13.6316 51.8559C13.539 51.6305 13.3636 51.5177 13.1259 51.4889C12.9076 51.4627 12.6893 51.4297 12.4697 51.4091C12.4075 51.4036 12.3785 51.3802 12.3578 51.3321C12.3191 51.24 12.2721 51.1506 12.2458 51.0558C12.0593 50.3739 11.8894 49.6865 11.83 48.9798C11.8065 48.698 11.8023 48.412 11.812 48.1302C11.8272 47.6999 11.946 47.2943 12.1602 46.9203C12.2887 46.6962 12.4255 46.4749 12.5816 46.2687C12.9173 45.8232 13.2682 45.3888 13.6123 44.9502C13.7449 44.7811 13.89 44.6203 13.9646 44.4154C13.9963 44.3302 14.006 44.2326 14.0088 44.1405C14.0129 43.9727 13.9065 43.8847 13.7601 43.8311C13.7062 43.8119 12.938 43.9356 12.898 43.9727C12.8206 44.0428 12.7391 44.1102 12.6672 44.1858C11.8231 45.0781 11.2317 45.87 10.6211 46.9327C10.0353 47.9418 10.7993 50.5485 10.914 51.0709C10.9416 51.1919 10.9706 51.3129 10.9955 51.4352C11.0452 51.6841 10.7744 51.7789 10.5354 52.223C10.3074 52.6478 10.2024 53.107 10.143 53.58C10.0491 54.3155 10.1541 55.029 10.3641 55.7329C10.4981 56.1839 10.6846 56.6128 10.8822 57.0376C10.9361 57.1545 11.0065 57.2645 11.0729 57.3758C11.2304 57.6398 11.5495 57.7374 11.87 57.6164C11.6504 57.336 11.4832 57.0266 11.334 56.7077C11.1848 56.3915 11.0121 56.0821 10.9582 55.7137C11.048 55.7137 11.0673 55.7687 11.0894 55.8154C11.1737 55.9955 11.2525 56.1797 11.3395 56.3585C11.4887 56.6623 11.6338 56.9689 11.7968 57.2658C11.9488 57.5422 12.1809 57.725 12.5056 57.758C12.6299 57.7718 12.757 57.769 12.8399 57.6329C12.5263 57.2411 12.2914 56.8012 12.0552 56.364C11.946 56.1632 11.8369 55.9598 11.7927 55.7315C11.7816 55.6766 11.7789 55.6188 11.7733 55.5624C11.7844 55.5583 11.7954 55.5556 11.8051 55.5514C11.8244 55.5748 11.8507 55.5954 11.8645 55.6216C11.9405 55.7728 12.0054 55.9295 12.087 56.078C12.3066 56.4808 12.5277 56.8823 12.7584 57.2796C12.8303 57.4033 12.9284 57.5147 13.0251 57.6205C13.1853 57.7951 13.394 57.8364 13.615 57.7512C13.7352 57.7044 13.8167 57.6247 13.8388 57.4913C13.2986 56.8506 12.8551 56.1509 12.5056 55.3906C12.5001 55.3768 12.5125 55.3548 12.5153 55.337C12.5277 55.3328 12.5401 55.3301 12.5512 55.326L12.5526 55.3301Z" fill="url(#paint5_linear_193_2269)"/>
<path fill-rule="evenodd" clip-rule="evenodd" d="M22.0186 47.3271H23.5742V51.6743C23.7166 51.9465 23.7995 52.282 23.7995 52.6463C23.7995 53.0106 23.7152 53.3461 23.5742 53.6183V59.6826H22.0186V47.3271Z" fill="url(#paint6_linear_193_2269)"/>
<path fill-rule="evenodd" clip-rule="evenodd" d="M20.6686 19.3002C28.7704 19.3002 35.3372 25.8347 35.3372 33.8966C35.3372 41.9586 28.7704 48.4931 20.6686 48.4931L7.28352 46.5518L6 33.8953C6 25.8333 12.5668 19.2988 20.6686 19.2988V19.3002Z" fill="url(#paint7_linear_193_2269)"/>
<path fill-rule="evenodd" clip-rule="evenodd" d="M6.98565 34.5564C6.12353 30.2449 8.87847 25.0825 12.8161 22.0826C16.0781 19.597 16.7965 21.4007 15.2532 22.0538C12.099 23.3915 7.19428 27.1612 6.98565 34.5564Z" fill="url(#paint8_linear_193_2269)"/>
<path fill-rule="evenodd" clip-rule="evenodd" d="M24.9088 19.8526C21.977 22.0482 17.5504 18.9246 13.5879 19.8732C16.4382 17.5264 20.974 18.0599 24.9088 19.8526Z" fill="#0F3D63"/>
<path fill-rule="evenodd" clip-rule="evenodd" d="M25.3625 20.2589C22.287 22.251 18.0855 18.8345 14.0664 19.5123C17.07 17.3649 21.5589 18.2035 25.3625 20.2589Z" fill="#3894D1"/>
<path fill-rule="evenodd" clip-rule="evenodd" d="M24.8773 19.9224C22.5438 21.5158 18.8715 17.4587 15.8623 17.5962C18.62 16.4702 21.7051 17.4422 24.8773 19.9224Z" fill="#0F3D63"/>
<path fill-rule="evenodd" clip-rule="evenodd" d="M25.365 20.2588C22.9596 21.7423 19.4807 17.5202 16.4688 17.5188C19.2762 16.5221 22.313 17.6343 25.365 20.2588Z" fill="#3894D1"/>
<path fill-rule="evenodd" clip-rule="evenodd" d="M23.7801 19.684C23.1128 18.7175 21.7159 17.487 20.8994 17.0113C21.9425 16.9371 23.1666 17.2107 24.3355 18.3504C25.0608 19.0584 24.7735 18.6226 25.4007 19.53C26.4217 21.0079 25.0083 21.4616 23.7801 19.684Z" fill="#0F3D63"/>
<path fill-rule="evenodd" clip-rule="evenodd" d="M23.6597 19.4969C23.0711 18.4809 22.2794 17.6423 21.4629 17.1309C23.2383 17.3151 25.3273 18.5084 26.4823 20.4992C27.3845 22.0527 24.7428 21.3653 23.6597 19.4969Z" fill="#3894D1"/>
<path fill-rule="evenodd" clip-rule="evenodd" d="M20.6726 18.5018C19.5107 17.8007 18.2327 17.358 16.9893 17.4474C18.2065 17.0652 19.4623 17.2081 20.7265 17.7897C22.0943 18.418 21.5044 19.0037 20.6726 18.5018Z" fill="url(#paint9_linear_193_2269)"/>
<path fill-rule="evenodd" clip-rule="evenodd" d="M18.3679 19.2437C17.0457 18.9302 15.6931 18.8986 14.5381 19.3633C15.5798 18.6278 16.8177 18.3817 18.2007 18.5494C19.697 18.7309 19.3143 19.4678 18.3693 19.2437H18.3679Z" fill="url(#paint10_linear_193_2269)"/>
<path fill-rule="evenodd" clip-rule="evenodd" d="M24.4067 19.1675C23.6744 18.3344 22.9422 17.7584 22.0635 17.3789C23.0002 17.6167 23.785 17.8615 24.6264 18.6245C25.5369 19.4508 24.9303 19.7628 24.4081 19.1662L24.4067 19.1675Z" fill="url(#paint11_linear_193_2269)"/>
<path fill-rule="evenodd" clip-rule="evenodd" d="M19.6731 59.5029C18.536 59.5029 18.4628 59.4988 17.3865 59.4658C17.1461 60.266 15.6484 60.7953 14.8968 60.9396C14.1148 61.0895 14.1798 61.8071 14.1798 61.8071L14.0029 61.9419C14.1535 62.5853 15.6567 62.5564 15.6567 62.5564H20.0019C20.4316 60.7142 19.6731 59.5029 19.6731 59.5029Z" fill="#21323C"/>
<path fill-rule="evenodd" clip-rule="evenodd" d="M20.1203 61.7853C18.87 61.8857 15.1424 62.1208 14.2416 61.4375C14.1725 61.6121 14.178 61.7702 14.1794 61.8004C15.1134 62.4769 18.8755 62.2321 20.0817 62.1345C20.0996 62.0149 20.1121 61.8981 20.1203 61.7853Z" fill="#101D24"/>
<path fill-rule="evenodd" clip-rule="evenodd" d="M17.3753 60.1238L17.0395 59.8818C16.9857 59.8419 16.9083 59.8543 16.8682 59.9093C16.8282 59.9643 16.8406 60.0399 16.8959 60.0798L17.2316 60.3217C17.2855 60.3616 17.3628 60.3492 17.4029 60.2942C17.443 60.2406 17.4305 60.1636 17.3753 60.1238Z" fill="#101D24"/>
<path fill-rule="evenodd" clip-rule="evenodd" d="M16.9686 60.4591L16.6922 60.158C16.6466 60.1085 16.5693 60.1044 16.5195 60.1498C16.4698 60.1951 16.4657 60.2721 16.5112 60.3216L16.7876 60.6227C16.8332 60.6722 16.9105 60.6763 16.9603 60.631C17.01 60.5856 17.0142 60.5086 16.9686 60.4591Z" fill="#101D24"/>
<path fill-rule="evenodd" clip-rule="evenodd" d="M16.474 60.7534L16.2584 60.4193C16.2225 60.3629 16.1465 60.3464 16.0885 60.3822C16.0318 60.4179 16.0153 60.4935 16.0512 60.5513L16.2667 60.8853C16.3026 60.9417 16.3786 60.9582 16.4367 60.9225C16.4933 60.8867 16.5099 60.8111 16.474 60.7534Z" fill="#101D24"/>
<path fill-rule="evenodd" clip-rule="evenodd" d="M19.8146 59.3369H17.2434C17.1481 59.3369 17.0693 59.4139 17.0693 59.5101C17.0693 59.605 17.1467 59.6834 17.2434 59.6834H19.8146C19.9099 59.6834 19.9887 59.6064 19.9887 59.5101C19.9887 59.4153 19.9113 59.3369 19.8146 59.3369Z" fill="#101D24"/>
<path fill-rule="evenodd" clip-rule="evenodd" d="M21.653 59.5029C22.7901 59.5029 22.8633 59.4988 23.9396 59.4658C24.18 60.266 25.6776 60.7953 26.4292 60.9396C27.2112 61.0895 27.1463 61.8071 27.1463 61.8071L27.3231 61.9419C27.1725 62.5853 25.6694 62.5564 25.6694 62.5564H21.3242C20.8945 60.7142 21.653 59.5029 21.653 59.5029Z" fill="#21323C"/>
<path fill-rule="evenodd" clip-rule="evenodd" d="M21.207 61.7853C22.4574 61.8857 26.185 62.1208 27.0858 61.4375C27.1549 61.6121 27.1493 61.7702 27.148 61.8004C26.214 62.4769 22.4519 62.2321 21.2457 62.1345C21.2278 62.0149 21.2153 61.8981 21.207 61.7853Z" fill="#101D24"/>
<path fill-rule="evenodd" clip-rule="evenodd" d="M23.9505 60.1238L24.2863 59.8818C24.3402 59.8419 24.4175 59.8543 24.4576 59.9093C24.4977 59.9643 24.4852 60.0399 24.43 60.0798L24.0942 60.3217C24.0404 60.3616 23.963 60.3492 23.9229 60.2942C23.8828 60.2406 23.8953 60.1636 23.9505 60.1238Z" fill="#101D24"/>
<path fill-rule="evenodd" clip-rule="evenodd" d="M24.3609 60.4591L24.6372 60.158C24.6828 60.1085 24.7601 60.1044 24.8099 60.1498C24.8596 60.1951 24.8638 60.2721 24.8182 60.3216L24.5418 60.6227C24.4963 60.6722 24.4189 60.6763 24.3691 60.631C24.3194 60.5856 24.3153 60.5086 24.3609 60.4591Z" fill="#101D24"/>
<path fill-rule="evenodd" clip-rule="evenodd" d="M24.8578 60.7534L25.0734 60.4193C25.1093 60.3629 25.1853 60.3464 25.2433 60.3822C25.2999 60.4179 25.3165 60.4935 25.2806 60.5513L25.0651 60.8853C25.0292 60.9417 24.9532 60.9582 24.8951 60.9225C24.8385 60.8867 24.8219 60.8111 24.8578 60.7534Z" fill="#101D24"/>
<path fill-rule="evenodd" clip-rule="evenodd" d="M21.511 59.3369H24.0822C24.1775 59.3369 24.2563 59.4139 24.2563 59.5101C24.2563 59.605 24.1789 59.6834 24.0822 59.6834H21.511C21.4157 59.6834 21.3369 59.6064 21.3369 59.5101C21.3369 59.4153 21.4143 59.3369 21.511 59.3369Z" fill="#101D24"/>
<path d="M20.6679 40.5275C26.6135 40.5275 31.4334 37.8672 31.4334 34.5855C31.4334 31.3039 26.6135 28.6436 20.6679 28.6436C14.7222 28.6436 9.90234 31.3039 9.90234 34.5855C9.90234 37.8672 14.7222 40.5275 20.6679 40.5275Z" fill="url(#paint12_radial_193_2269)"/>
<path fill-rule="evenodd" clip-rule="evenodd" d="M16.1944 27.8479C18.4188 28.0871 20.0284 30.0751 19.788 32.2885C19.6111 33.9205 18.2779 36.2343 15.9236 36.3869C16.5108 36.2343 17.4503 35.6623 17.8302 35.3214C17.1021 35.7531 16.2331 35.9621 15.3254 35.8644C13.101 35.6252 11.4914 33.6372 11.7318 31.4238C11.9722 29.2103 13.97 27.6087 16.1944 27.8479Z" fill="url(#paint13_linear_193_2269)"/>
<path fill-rule="evenodd" clip-rule="evenodd" d="M16.2793 28.5019C18.2191 28.7095 19.6215 30.4432 19.4128 32.3734C19.2042 34.3036 17.462 35.6991 15.5222 35.4915C13.5824 35.2839 12.1801 33.5502 12.3887 31.62C12.5974 29.6898 14.3396 28.2943 16.2793 28.5019Z" fill="white"/>
<path fill-rule="evenodd" clip-rule="evenodd" d="M19.2153 30.7783C19.399 31.2719 19.4736 31.8149 19.4128 32.3731C19.2042 34.3034 17.462 35.6988 15.5222 35.4912C13.5824 35.2836 12.1801 33.55 12.3887 31.6197C12.4606 30.9557 12.7134 30.3549 13.0933 29.8613C12.9814 30.1335 12.9041 30.425 12.8709 30.7316C12.683 32.4735 13.9486 34.0366 15.6977 34.225C17.4482 34.4134 19.0191 33.1526 19.2084 31.4121C19.2319 31.1977 19.2332 30.9859 19.2139 30.7783H19.2153Z" fill="url(#paint14_linear_193_2269)"/>
<path fill-rule="evenodd" clip-rule="evenodd" d="M16.2794 28.5019C18.1363 28.7013 19.5013 30.2988 19.4308 32.1273C19.3645 30.4129 18.0437 28.9625 16.2794 28.7727C14.3396 28.5652 12.5974 29.9606 12.3888 31.8908C12.3805 31.9733 12.3736 32.0544 12.3708 32.1369C12.3639 31.9664 12.3708 31.7946 12.3888 31.62C12.5974 29.6898 14.3396 28.2943 16.2794 28.5019Z" fill="#E6E7E7"/>
<path fill-rule="evenodd" clip-rule="evenodd" d="M16.7475 30.2495C17.6373 30.3444 18.2811 31.1404 18.1858 32.0258C18.0905 32.9112 17.2905 33.5519 16.4007 33.457C15.511 33.3621 14.8672 32.5661 14.9625 31.6807C15.0578 30.7953 15.8578 30.1547 16.7475 30.2495Z" fill="#A62823"/>
<path fill-rule="evenodd" clip-rule="evenodd" d="M16.7323 33.3252C17.5488 33.2373 18.1402 32.5072 18.0518 31.6947C17.9633 30.8822 17.2297 30.2938 16.4132 30.3818C15.5966 30.4697 15.0053 31.1998 15.0937 32.0123C15.1821 32.8248 15.9158 33.4132 16.7323 33.3252Z" fill="#F48220"/>
<path fill-rule="evenodd" clip-rule="evenodd" d="M16.6842 32.8832C17.2562 32.8213 17.6693 32.3112 17.6085 31.7421C17.5463 31.1729 17.0337 30.7618 16.4617 30.8223C15.8897 30.8842 15.4753 31.3942 15.5374 31.9634C15.5996 32.5326 16.1122 32.9437 16.6842 32.8832Z" fill="#A62823"/>
<path fill-rule="evenodd" clip-rule="evenodd" d="M16.7058 33.0816C17.2667 33.0211 17.7005 32.5977 17.7945 32.0711C17.5665 32.0959 17.3316 32.1096 17.0898 32.1096C16.446 32.1096 15.845 32.0161 15.3311 31.8525C15.3311 31.8965 15.3338 31.9419 15.338 31.9859C15.4112 32.6637 16.0232 33.1545 16.7058 33.0816Z" fill="url(#paint15_linear_193_2269)"/>
<path fill-rule="evenodd" clip-rule="evenodd" d="M17.0711 30.6224C17.3792 30.6554 17.6016 30.9304 17.5684 31.2369C17.5353 31.5435 17.259 31.7649 16.9509 31.7319C16.6428 31.6989 16.4203 31.4239 16.4535 31.1173C16.4866 30.8107 16.763 30.5894 17.0711 30.6224Z" fill="white"/>
<path fill-rule="evenodd" clip-rule="evenodd" d="M16.1794 32.7209C16.3051 32.7346 16.3949 32.846 16.3825 32.9711C16.3686 33.0962 16.2567 33.1856 16.131 33.1732C16.0053 33.1608 15.9155 33.0481 15.9279 32.923C15.9417 32.7979 16.0536 32.7085 16.1794 32.7209Z" fill="white"/>
<path fill-rule="evenodd" clip-rule="evenodd" d="M15.7314 32.6206C15.788 32.6261 15.8295 32.6784 15.8239 32.7347C15.8184 32.7911 15.7659 32.8323 15.7093 32.8268C15.6526 32.8213 15.6112 32.7691 15.6167 32.7127C15.6222 32.6564 15.6747 32.6151 15.7314 32.6206Z" fill="white"/>
<path fill-rule="evenodd" clip-rule="evenodd" d="M25.2209 27.8479C22.9965 28.0871 21.3869 30.0751 21.6273 32.2885C21.8041 33.9205 23.107 36.3113 25.1366 36.3181C24.461 36.138 23.8697 35.7462 23.585 35.3214C24.3132 35.7531 25.1822 35.9621 26.0899 35.8644C28.3143 35.6252 29.9239 33.6372 29.6835 31.4238C29.4431 29.2103 27.4453 27.6087 25.2209 27.8479Z" fill="url(#paint16_linear_193_2269)"/>
<path fill-rule="evenodd" clip-rule="evenodd" d="M25.1326 28.5019C23.1928 28.7095 21.7905 30.4432 21.9991 32.3734C22.2077 34.3036 23.9499 35.6991 25.8897 35.4915C27.8295 35.2839 29.2318 33.5502 29.0232 31.62C28.8146 29.6898 27.0724 28.2943 25.1326 28.5019Z" fill="white"/>
<path fill-rule="evenodd" clip-rule="evenodd" d="M22.1969 30.7783C22.0131 31.2719 21.9385 31.8149 21.9993 32.3731C22.2079 34.3034 23.9501 35.6988 25.8899 35.4912C27.8297 35.2836 29.232 33.55 29.0234 31.6197C28.9516 30.9557 28.6987 30.3549 28.3188 29.8613C28.4307 30.1335 28.5081 30.425 28.5412 30.7316C28.7305 32.4735 27.4636 34.0366 25.7144 34.225C23.9639 34.4134 22.3931 33.1526 22.2038 31.4121C22.1803 31.1977 22.1789 30.9859 22.1982 30.7783H22.1969Z" fill="url(#paint17_linear_193_2269)"/>
<path fill-rule="evenodd" clip-rule="evenodd" d="M25.1326 28.5019C23.2757 28.7013 21.9107 30.2988 21.9811 32.1273C22.0474 30.4129 23.3683 28.9625 25.1326 28.7727C27.0724 28.5652 28.8146 29.9606 29.0232 31.8908C29.0315 31.9733 29.0384 32.0544 29.0412 32.1369C29.0481 31.9664 29.0412 31.7946 29.0232 31.62C28.8146 29.6898 27.0724 28.2943 25.1326 28.5019Z" fill="#E6E7E7"/>
<path fill-rule="evenodd" clip-rule="evenodd" d="M25.0131 30.2495C25.9029 30.3444 26.5467 31.1404 26.4514 32.0258C26.3561 32.9112 25.5561 33.5519 24.6664 33.457C23.7766 33.3621 23.1328 32.5661 23.2281 31.6807C23.3234 30.7953 24.1234 30.1547 25.0131 30.2495Z" fill="#A62823"/>
<path fill-rule="evenodd" clip-rule="evenodd" d="M24.9979 33.3252C25.8145 33.2373 26.4058 32.5072 26.3174 31.6947C26.229 30.8822 25.4953 30.2938 24.6788 30.3818C23.8622 30.4697 23.2709 31.1998 23.3593 32.0123C23.4478 32.8248 24.1814 33.4132 24.9979 33.3252Z" fill="#F48220"/>
<path fill-rule="evenodd" clip-rule="evenodd" d="M24.9496 32.8832C25.5215 32.8213 25.936 32.3112 25.8738 31.7421C25.8117 31.1729 25.2991 30.7618 24.7271 30.8223C24.1551 30.8842 23.742 31.3942 23.8028 31.9634C23.865 32.5326 24.3776 32.9437 24.9496 32.8832Z" fill="#A62823"/>
<path fill-rule="evenodd" clip-rule="evenodd" d="M24.9733 33.0816C25.5343 33.0211 25.9681 32.5977 26.062 32.0711C25.8341 32.0959 25.5992 32.1096 25.3574 32.1096C24.7136 32.1096 24.1126 32.0161 23.5986 31.8525C23.5986 31.8965 23.6014 31.9419 23.6055 31.9859C23.6788 32.6637 24.2908 33.1545 24.9733 33.0816Z" fill="url(#paint18_linear_193_2269)"/>
<path fill-rule="evenodd" clip-rule="evenodd" d="M25.3377 30.6224C25.6458 30.6554 25.8682 30.9304 25.835 31.2369C25.8019 31.5435 25.5255 31.7649 25.2174 31.7319C24.9093 31.6989 24.6869 31.4239 24.7201 31.1173C24.7532 30.8107 25.0296 30.5894 25.3377 30.6224Z" fill="white"/>
<path fill-rule="evenodd" clip-rule="evenodd" d="M24.445 32.7218C24.5707 32.7356 24.6605 32.847 24.6481 32.9721C24.6343 33.0972 24.5224 33.1865 24.3966 33.1742C24.2709 33.1604 24.1811 33.0491 24.1935 32.9239C24.2073 32.7988 24.3193 32.7095 24.445 32.7218Z" fill="white"/>
<path fill-rule="evenodd" clip-rule="evenodd" d="M23.999 32.6216C24.0556 32.6271 24.0971 32.6793 24.0915 32.7357C24.086 32.7921 24.0335 32.8333 23.9768 32.8278C23.9202 32.8223 23.8788 32.7701 23.8843 32.7137C23.8898 32.6573 23.9423 32.6161 23.999 32.6216Z" fill="white"/>
<path fill-rule="evenodd" clip-rule="evenodd" d="M25.5611 27.3475C26.8805 27.4121 28.0936 27.775 29.051 28.2384C29.3909 28.4033 29.8206 28.27 30.072 27.9208C30.3235 27.5716 30.3138 27.122 30.0499 26.8525C28.9515 25.7307 27.3724 24.9416 25.6605 24.6845C25.5016 24.6611 25.3483 24.7092 25.2143 24.8247C25.0803 24.9402 25.0043 25.0914 24.9918 25.2619L24.9034 26.5638C24.8744 26.99 25.1576 27.3269 25.5611 27.3475Z" fill="#005D95"/>
<path fill-rule="evenodd" clip-rule="evenodd" d="M25.4718 26.7342C26.8161 26.9707 28.0513 27.4849 29.0253 28.0637C30.2439 28.7882 31.3685 25.7691 30.7054 25.3154C29.0391 24.1757 26.1391 24.0905 25.1927 24.6528C24.8929 24.8315 24.3789 26.5404 25.4732 26.7329L25.4718 26.7342Z" fill="#0A1B3F"/>
<path fill-rule="evenodd" clip-rule="evenodd" d="M25.5394 25.5254C26.5562 25.8045 28.8428 26.6583 29.6759 27.2934C30.2203 27.7086 30.9263 25.887 30.4496 25.4842C29.5847 24.7514 27.0094 24.3115 25.6609 24.684C25.5559 24.7129 25.082 25.4003 25.5394 25.5254Z" fill="url(#paint19_linear_193_2269)"/>
<path fill-rule="evenodd" clip-rule="evenodd" d="M15.8506 27.3475C14.5311 27.4121 13.3181 27.775 12.3606 28.2384C12.0207 28.4033 11.5911 28.27 11.3396 27.9208C11.0882 27.5716 11.0978 27.122 11.3617 26.8525C12.4601 25.7307 14.0393 24.9416 15.7511 24.6845C15.91 24.6611 16.0633 24.7092 16.1974 24.8247C16.3314 24.9402 16.4074 25.0914 16.4198 25.2619L16.5082 26.5638C16.5372 26.99 16.254 27.3269 15.8506 27.3475Z" fill="#005D95"/>
<path fill-rule="evenodd" clip-rule="evenodd" d="M15.9404 26.7342C14.5961 26.9707 13.3609 27.4849 12.3869 28.0637C11.1683 28.7882 10.0436 25.7691 10.7068 25.3154C12.373 24.1757 15.273 24.0905 16.2194 24.6528C16.5193 24.8315 17.0332 26.5404 15.939 26.7329L15.9404 26.7342Z" fill="#0A1B3F"/>
<path fill-rule="evenodd" clip-rule="evenodd" d="M15.8754 25.5254C14.8586 25.8045 12.572 26.6583 11.7389 27.2934C11.1945 27.7086 10.4885 25.887 10.9652 25.4842C11.8301 24.7514 14.4054 24.3115 15.7539 24.684C15.8589 24.7129 16.3328 25.4003 15.8754 25.5254Z" fill="url(#paint20_linear_193_2269)"/>
<path fill-rule="evenodd" clip-rule="evenodd" d="M13.7046 37.3241C13.0594 37.7916 12.5565 38.6054 12.4404 40.2374C12.9323 39.3245 13.5347 38.7773 14.6123 38.4212C14.7643 38.3717 13.8607 37.2114 13.7046 37.3241Z" fill="#0A1B3F"/>
<path fill-rule="evenodd" clip-rule="evenodd" d="M12.474 41.7894C12.4146 42.6087 11.8757 44.1485 12.2902 46.0348C12.4906 45.0188 13.0156 43.4818 13.9399 42.9799C14.0808 42.903 12.4878 41.5996 12.474 41.7894Z" fill="#0A1B3F"/>
<path fill-rule="evenodd" clip-rule="evenodd" d="M20.7037 50.4114C20.7134 45.6696 20.6941 41.7335 20.7037 36.9918C20.1967 36.9918 16.2411 36.9629 15.7258 36.9629C13.8661 36.9629 13.4447 37.088 13.0068 38.713C10.9509 47.3455 14.2723 50.41 20.7037 50.41V50.4114Z" fill="#0A1B3F"/>
<path fill-rule="evenodd" clip-rule="evenodd" d="M20.7089 50.4114C20.7006 46.3433 19.7293 43.1083 19.7266 39.208C19.7266 38.5632 20.7047 37.6654 20.7034 36.9918C21.2104 36.9918 25.1715 36.9629 25.6868 36.9629C27.5465 36.9629 27.9679 37.088 28.4059 38.713C30.4617 47.3455 27.1403 50.41 20.7089 50.41V50.4114Z" fill="#0A1B3F"/>
<path fill-rule="evenodd" clip-rule="evenodd" d="M27.7061 37.3241C28.3513 37.7916 28.8542 38.6054 28.9703 40.2374C28.4784 39.3245 27.8761 38.7773 26.7984 38.4212C26.6464 38.3717 27.55 37.2114 27.7061 37.3241Z" fill="#0A1B3F"/>
<path fill-rule="evenodd" clip-rule="evenodd" d="M29.0076 42.8789C29.4042 49.5646 25.6448 49.9523 23.7119 50.5229C25.7512 49.4272 27.9369 46.8576 29.0076 42.8789Z" fill="#0A1B3F"/>
<path fill-rule="evenodd" clip-rule="evenodd" d="M28.9366 41.7894C28.996 42.6087 29.5349 44.1485 29.1204 46.0348C28.92 45.0188 28.395 43.4818 27.4707 42.9799C27.3298 42.903 28.9228 41.5996 28.9366 41.7894Z" fill="#0A1B3F"/>
<path fill-rule="evenodd" clip-rule="evenodd" d="M25.5929 42.8789C25.8955 47.9905 24.4973 49.9908 22.4912 50.3222C21.8156 50.4335 21.1869 50.6906 20.7075 51.0632C20.2833 50.7332 19.8523 50.3923 19.1311 50.3428C17.0407 50.1998 15.5085 48.1692 15.8207 42.8789C16.7243 46.2321 19.149 47.4447 20.2488 49.6829C21.3651 47.3361 24.6644 46.3242 25.5929 42.8789Z" fill="#0A1B3F"/>
<path fill-rule="evenodd" clip-rule="evenodd" d="M27.0887 43.1084C27.2421 45.6903 27.1288 47.4391 26.3868 48.5156C25.2069 50.2258 22.9577 50.4692 21.793 50.7524C23.8322 49.6567 26.0179 47.0871 27.0887 43.1084Z" fill="#0A1B3F"/>
<path fill-rule="evenodd" clip-rule="evenodd" d="M12.4959 42.8203C12.0993 49.5061 15.8587 49.8938 17.7916 50.4643C15.7537 49.3686 13.5666 46.799 12.4959 42.8203Z" fill="#0A1B3F"/>
<path fill-rule="evenodd" clip-rule="evenodd" d="M14.4168 43.0508C14.2634 45.6327 14.3767 47.3815 15.1187 48.4579C16.2986 50.1682 18.5478 50.4116 19.7125 50.6948C17.6746 49.599 15.4876 47.0295 14.4168 43.0508Z" fill="#0A1B3F"/>
<path fill-rule="evenodd" clip-rule="evenodd" d="M20.5384 37.2002C22.8733 37.2002 24.7841 37.1576 26.471 37.1576C26.8827 37.1576 27.8402 37.4518 28.0461 38.5214C28.1317 38.9669 27.3511 38.2767 26.4268 38.1502C25.4804 38.021 24.3793 38.3633 23.3348 38.3193L23.1579 37.8794L22.9866 38.3056C22.6854 38.2946 22.3925 38.2863 22.1107 38.2808L22.0181 38.0485L21.9269 38.2767C21.406 38.2671 20.9308 38.263 20.5384 38.263C19.7398 38.263 18.5972 38.2767 17.4118 38.3331L17.2419 37.911L17.065 38.351C16.2333 38.3963 15.3933 38.0471 14.6499 38.1489C13.7256 38.2754 13.155 38.9669 13.2338 38.5201C13.3554 37.8258 14.1926 37.1562 14.6044 37.1562C16.3217 37.1562 18.2021 37.1989 20.537 37.1989L20.5384 37.2002Z" fill="url(#paint21_linear_193_2269)"/>
<path fill-rule="evenodd" clip-rule="evenodd" d="M20.5379 50.0963C29.6082 50.0963 28.6411 41.3387 27.4626 41.6233C27.1641 41.6962 27.0937 42.7671 26.6294 43.3157C25.6236 44.5022 24.0486 45.6254 23.3343 45.6776L23.1575 46.4558L22.9861 45.701C22.6849 45.7203 22.392 45.734 22.1102 45.745L22.0176 46.8407L21.9264 45.7519C21.4056 45.7697 20.9303 45.7752 20.5379 45.7752C19.7393 45.7752 18.5968 45.7519 17.4113 45.6501L17.2414 46.398L17.0645 45.6185C16.4152 45.5553 15.2463 44.8225 14.3815 43.6979C14.1383 43.3817 13.8592 41.5229 13.6962 41.4831C12.729 41.2493 11.4856 50.0949 20.5365 50.0949L20.5379 50.0963Z" fill="url(#paint22_linear_193_2269)"/>
<path fill-rule="evenodd" clip-rule="evenodd" d="M13.954 39.9271C15.9725 44.8462 24.8673 44.9411 27.3473 40.4619C27.719 39.7896 27.4869 38.7819 26.289 38.9386C23.0643 39.3621 17.9828 39.0527 15.1878 38.6554C14.1972 38.5138 13.7205 39.3579 13.954 39.9257V39.9271Z" fill="#0F3D63"/>
<path fill-rule="evenodd" clip-rule="evenodd" d="M14.2813 39.9724C15.9406 44.0006 24.0189 45.0358 27.0944 40.4233C27.3113 40.0988 27.3057 39.6974 27.0819 39.3784C26.8581 39.0595 26.4795 38.9165 26.0996 39.0072C22.9841 39.7496 18.078 39.4128 15.3783 38.7213C15.0274 38.6319 14.6792 38.7391 14.4416 39.0114C14.2039 39.2822 14.1445 39.641 14.2813 39.9737V39.9724Z" fill="#7A1131"/>
<mask id="mask0_193_2269" style="mask-type:luminance" maskUnits="userSpaceOnUse" x="14" y="38" width="14" height="6">
<path d="M14.2793 39.9724C15.9386 44.0006 24.0169 45.0358 27.0924 40.4233C27.3093 40.0988 27.3038 39.6974 27.08 39.3784C26.8562 39.0595 26.4776 38.9165 26.0976 39.0072C22.9821 39.7496 18.076 39.4128 15.3763 38.7213C15.0254 38.6319 14.6772 38.7391 14.4396 39.0114C14.202 39.2822 14.1426 39.641 14.2793 39.9737V39.9724Z" fill="white"/>
</mask>
<g mask="url(#mask0_193_2269)">
<path d="M20.7934 49.5304C23.8738 49.5304 26.371 46.4626 26.371 42.6783C26.371 38.894 23.8738 35.8262 20.7934 35.8262C17.713 35.8262 15.2158 38.894 15.2158 42.6783C15.2158 46.4626 17.713 49.5304 20.7934 49.5304Z" fill="url(#paint23_radial_193_2269)"/>
<path fill-rule="evenodd" clip-rule="evenodd" d="M21.4207 41.1179C21.9941 41.3723 22.3934 41.9442 22.3934 42.6082C22.3934 43.5087 21.6598 44.2388 20.7548 44.2388C19.8498 44.2388 19.1162 43.5087 19.1162 42.6082C19.1162 41.9428 19.5155 41.3709 20.0889 41.1179C20.2063 41.0657 20.3306 41.0739 20.4398 41.1413C20.5489 41.2087 20.6125 41.3145 20.618 41.4424C20.6277 41.6514 20.2187 42.1573 20.7548 42.1573C21.2909 42.1573 20.8805 41.6514 20.8916 41.4424C20.8971 41.3145 20.9607 41.2087 21.0698 41.1413C21.179 41.0739 21.3033 41.0657 21.4207 41.1179Z" fill="#291115"/>
<path fill-rule="evenodd" clip-rule="evenodd" d="M15.1152 37.3127C19.1012 37.2261 22.3065 37.5505 26.2925 37.4626C26.2925 37.4626 26.2566 39.4945 26.1267 40.2259L25.7578 40.4679C23.9949 40.9725 18.2446 40.5559 15.7756 40.1132L15.3819 39.8877C15.1995 39.1151 15.1152 37.3113 15.1152 37.3113V37.3127Z" fill="#D0D2D3"/>
<path fill-rule="evenodd" clip-rule="evenodd" d="M14.6777 37.0867C18.969 36.9932 22.4175 37.3122 26.7088 37.2187L26.1258 40.2254C24.063 40.6667 16.9325 40.2144 15.381 39.8872L14.6777 37.0867Z" fill="white"/>
<path fill-rule="evenodd" clip-rule="evenodd" d="M15.1254 38.8741C16.5388 39.2192 18.6706 39.5038 20.8936 39.5382C23.1167 39.5725 25.0026 39.4735 26.3344 39.145L26.38 38.9126C24.8837 38.9456 23.0918 39.3182 20.8936 39.2838C18.6955 39.2495 16.6231 38.7325 15.0674 38.6445L15.1254 38.8755V38.8741Z" fill="#BBBDBF"/>
<path fill-rule="evenodd" clip-rule="evenodd" d="M19.9633 42.4448C20.2811 42.4696 20.585 42.5273 20.8682 42.6153C21.1639 42.5713 21.4734 42.5589 21.7912 42.5837C23.5873 42.7198 24.9454 43.9585 24.8252 45.3512C24.5254 48.8089 16.1915 48.1751 16.4913 44.7174C16.6115 43.3261 18.1658 42.3087 19.9619 42.4448H19.9633Z" fill="#A31D30"/>
<path fill-rule="evenodd" clip-rule="evenodd" d="M20.171 42.5619C20.4239 42.5771 20.667 42.6142 20.8936 42.6692C21.1299 42.6417 21.3772 42.6348 21.63 42.6499C23.0641 42.7352 24.1487 43.5106 24.052 44.3808C23.813 46.5434 17.1605 46.1461 17.4009 43.9849C17.4976 43.1146 18.7369 42.4781 20.171 42.5633V42.5619Z" fill="url(#paint24_linear_193_2269)"/>
<path fill-rule="evenodd" clip-rule="evenodd" d="M21.1196 42.5859C21.6764 43.0259 21.1749 44.0199 20.8834 44.5891C21.034 43.9044 21.226 42.9187 20.625 42.5488C20.7079 42.5681 20.788 42.5914 20.8682 42.6162C20.9511 42.6038 21.0353 42.5942 21.1196 42.5873V42.5859Z" fill="#A31D30"/>
</g>
<path fill-rule="evenodd" clip-rule="evenodd" d="M17.0547 43.1445C18.5275 44.9579 23.1946 45.094 24.6522 43.2201C22.968 44.2183 18.6601 44.133 17.0547 43.1445Z" fill="#0F1227"/>
<path fill-rule="evenodd" clip-rule="evenodd" d="M21.1453 44.149C19.8479 44.2205 20.127 44.7017 20.7059 45.8125C21.2047 44.7154 21.9853 44.1022 21.1453 44.149Z" fill="#0F1227"/>
<path fill-rule="evenodd" clip-rule="evenodd" d="M20.242 44.0435C20.0112 44.016 18.8175 43.9486 18.9944 44.082C19.4199 44.4009 19.7529 44.6718 19.956 45.3551C20.2654 44.6759 20.8899 44.1191 20.2406 44.0435H20.242Z" fill="#0F1227"/>
<path fill-rule="evenodd" clip-rule="evenodd" d="M21.1446 44.1484C21.4196 44.1168 23.0319 44.1498 22.768 44.2392C22.0137 44.4935 21.7871 44.9706 21.6406 45.3858C21.3312 44.7066 20.4953 44.2241 21.1433 44.1484H21.1446Z" fill="#0F1227"/>
<path fill-rule="evenodd" clip-rule="evenodd" d="M56.1362 28.8398C75.4378 28.8398 76.0111 45.1053 56.1362 45.1053V28.8398Z" fill="#3F1145"/>
<path fill-rule="evenodd" clip-rule="evenodd" d="M56.1373 28.8398C36.8357 28.8398 36.2624 45.1053 56.1373 45.1053V28.8398Z" fill="#023B41"/>
<path fill-rule="evenodd" clip-rule="evenodd" d="M71.4206 43.14C71.4334 43.1491 71.4449 43.1582 71.4576 43.1674C71.4895 43.1308 71.5253 43.0982 71.5534 43.0591C71.7705 42.7473 71.9863 42.4342 72.2033 42.1224C72.4868 41.7141 72.769 41.3031 73.0589 40.8987C73.1406 40.7852 73.2389 40.6821 73.3423 40.5882C73.4509 40.4891 73.5224 40.4878 73.6411 40.5739C73.7075 40.6221 73.7726 40.6821 73.8186 40.75C73.9259 40.9091 73.9642 41.0931 73.9846 41.2692C73.9233 41.341 73.8684 41.3984 73.8199 41.461C73.4202 41.9698 73.0218 42.4798 72.6222 42.9886C72.4396 43.2208 72.2531 43.4491 72.0705 43.6814C72.0386 43.7218 71.9926 43.7635 72.0195 43.8327C72.0782 43.847 72.1063 43.8105 72.1357 43.774C72.6324 43.1517 73.1304 42.5294 73.6271 41.9058C73.7663 41.731 73.9016 41.551 74.0408 41.3697C74.0855 41.3892 74.1276 41.401 74.1608 41.4244C74.2361 41.4779 74.4711 41.7936 74.5005 41.9776C74.5171 41.6736 74.3702 41.3683 74.0893 41.2483C74.0765 41.1766 74.0676 41.0826 74.0408 40.9926C74.0127 40.8987 73.9795 40.8035 73.9323 40.7174C73.8161 40.5086 73.636 40.399 73.3845 40.4043C73.3819 40.1864 73.267 40.0312 73.115 39.8994C72.9963 39.7963 72.8558 39.7468 72.7026 39.7768C72.6247 39.7924 72.5545 39.8472 72.4715 39.889C72.4357 39.7663 72.3719 39.6607 72.2608 39.5824C71.9965 39.3971 71.6568 39.4598 71.4704 39.6854C71.2942 39.8981 71.1333 40.1251 70.9877 40.3599C70.6328 40.93 70.2893 41.5079 69.9407 42.0833C69.9292 42.1028 69.8934 42.1563 69.8794 42.1759C69.7568 41.9619 69.6636 41.8628 69.5474 41.7662C69.7262 41.9854 69.8245 42.2933 69.7747 42.5568C69.7389 42.7473 69.6521 42.913 69.5423 43.0669C69.5167 43.1034 69.4746 43.1374 69.527 43.2065C69.5614 43.183 69.6036 43.1647 69.6291 43.1334C69.7785 42.9456 69.8845 42.7355 69.8998 42.4916C69.9075 42.3663 69.9496 42.2646 70.0122 42.1641C70.2586 41.7702 70.4974 41.3697 70.749 40.9796C70.9877 40.6078 71.2354 40.2438 71.4857 39.8798C71.5432 39.7963 71.6185 39.7194 71.699 39.6607C71.9365 39.4871 72.3221 39.6541 72.3642 39.9411C72.3719 39.9907 72.3642 40.0299 72.3323 40.0716C71.8152 40.7513 71.3516 41.4701 70.883 42.185C70.8345 42.2594 70.7911 42.339 70.7528 42.4185C70.7451 42.4342 70.7681 42.4655 70.777 42.489C70.7962 42.4812 70.8205 42.4772 70.8345 42.4642C70.8511 42.4485 70.8588 42.4237 70.8715 42.4042C71.344 41.7154 71.8152 41.0252 72.2914 40.3377C72.414 40.1603 72.5519 39.9946 72.7179 39.8576C72.7677 39.8694 72.8124 39.8785 72.8571 39.8916C73.041 39.9424 73.1585 40.0716 73.2376 40.2399C73.2989 40.369 73.2734 40.446 73.1751 40.553C73.0869 40.6495 72.995 40.7461 72.9222 40.8543C72.4281 41.5862 71.9377 42.3207 71.4487 43.0552C71.4321 43.0786 71.4283 43.1113 71.418 43.14H71.4206Z" fill="#BF2659"/>
<path fill-rule="evenodd" clip-rule="evenodd" d="M71.4198 43.1399C71.43 43.1112 71.4351 43.0799 71.4504 43.0552C71.9408 42.3207 72.4298 41.5862 72.924 40.8543C72.9967 40.7461 73.0887 40.6495 73.1768 40.553C73.2751 40.446 73.2994 40.3677 73.2393 40.2399C73.1602 40.0729 73.0427 39.9424 72.8588 39.8916C72.8141 39.8798 72.7695 39.8694 72.7197 39.8576C72.5537 39.9959 72.4158 40.1603 72.2932 40.3377C71.8169 41.0252 71.3457 41.7154 70.8733 42.4042C70.8605 42.4237 70.8528 42.4485 70.8362 42.4642C70.8222 42.4772 70.7979 42.4811 70.7788 42.489C70.7698 42.4655 70.7469 42.4342 70.7545 42.4185C70.7928 42.3376 70.8362 42.2594 70.8848 42.185C71.3534 41.4701 71.8182 40.7526 72.334 40.0716C72.366 40.0298 72.3736 39.9907 72.366 39.9411C72.3238 39.6528 71.9382 39.4858 71.7007 39.6593C71.619 39.718 71.5449 39.795 71.4875 39.8785C71.2372 40.2412 70.9882 40.6065 70.7507 40.9783C70.4991 41.3696 70.2604 41.7688 70.0126 42.1641C69.9501 42.2646 69.9079 42.3663 69.9003 42.4916C69.8849 42.7342 69.779 42.9456 69.6296 43.1334C69.604 43.1647 69.5619 43.183 69.5274 43.2065C69.4738 43.1373 69.5159 43.1034 69.5427 43.0669C69.6526 42.9116 69.7394 42.7473 69.7751 42.5568C69.8492 42.1615 69.5925 41.6697 69.2286 41.521C69.1814 41.5014 69.1316 41.4897 69.0818 41.4831C68.9171 41.4623 68.8264 41.5392 68.8136 41.7088C68.8085 41.7701 68.8098 41.8328 68.8162 41.8928C68.8622 42.3155 68.7587 42.7107 68.5991 43.093C68.5046 43.3187 68.3871 43.5352 68.2876 43.7583C68.225 43.9005 68.1624 44.0453 68.1228 44.194C68.0283 44.545 68.0998 44.8829 68.2531 45.1986C68.3386 45.376 68.3425 45.5325 68.2339 45.6917C67.9977 46.0361 67.7717 46.3883 67.5163 46.7184C67.1958 47.1333 66.8485 47.5272 66.5139 47.9317C66.3428 48.1378 66.2139 48.1378 66.0249 47.9969C65.6852 47.7438 65.3405 47.4959 65.0021 47.2428C64.3011 46.7184 63.6039 46.1861 62.9003 45.6656C62.7024 45.5195 62.4879 45.3956 62.2759 45.2703C62.2057 45.2286 62.1227 45.192 62.0423 45.1855C61.7307 45.1607 61.3898 45.6043 61.4613 45.8365C61.4817 45.9017 61.5238 45.963 61.5634 46.0205C61.792 46.3505 62.0793 46.6258 62.3679 46.8997C63.3383 47.8208 64.6012 48.8057 65.6903 49.5754C65.7848 49.6433 65.8844 49.7033 65.9789 49.7711C66.1117 49.8663 66.2662 49.8742 66.4182 49.8742C66.4705 49.8742 66.5318 49.8337 66.574 49.7946C66.7374 49.642 66.9047 49.4893 67.0541 49.3223C67.7372 48.5579 68.6298 47.6042 69.3091 46.8371C69.3742 46.7641 69.4368 46.6858 69.5108 46.6219C69.8262 46.3492 70.1722 46.7236 70.5911 46.5305C70.7175 46.4718 70.8439 46.4105 70.9588 46.3322C71.5219 45.9513 72.0071 45.4791 72.463 44.9729C73.0848 44.2841 73.6505 43.547 74.2021 42.8008C74.3247 42.6351 74.4332 42.4564 74.4843 42.2515C74.5533 41.9737 74.4767 41.6462 74.1625 41.4231C74.1293 41.3996 74.0872 41.3892 74.0425 41.3683C73.9033 41.5497 73.768 41.7284 73.6288 41.9045C73.1321 42.5281 72.6341 43.1504 72.1374 43.7727C72.108 43.8092 72.0799 43.8457 72.0212 43.8314C71.9944 43.7635 72.0403 43.7218 72.0723 43.68C72.2549 43.4478 72.4413 43.2195 72.6239 42.9873C73.0236 42.4785 73.4219 41.9684 73.8216 41.4597C73.8701 41.397 73.925 41.3396 73.9863 41.2679C73.9659 41.0918 73.9276 40.9078 73.8203 40.7487C73.7744 40.6808 73.7092 40.6208 73.6429 40.5725C73.5241 40.4864 73.4526 40.4877 73.3441 40.5869C73.2419 40.6808 73.1423 40.7839 73.0606 40.8974C72.7707 41.3018 72.4898 41.7114 72.2051 42.1211C71.988 42.4329 71.7722 42.746 71.5551 43.0578C71.5283 43.0969 71.4913 43.1295 71.4594 43.166C71.4466 43.1569 71.4351 43.1478 71.4223 43.1386L71.4198 43.1399Z" fill="url(#paint25_linear_193_2269)"/>
<path fill-rule="evenodd" clip-rule="evenodd" d="M72.1511 44.6945C71.6901 43.9261 71.1053 43.2986 70.3877 42.752C70.403 42.8315 70.4426 42.8537 70.4732 42.8837C70.7669 43.1707 71.0644 43.4538 71.353 43.7473C71.6059 44.0057 71.8153 44.3005 72.0196 44.5979C72.0464 44.6371 72.063 44.6945 72.1511 44.6945Z" fill="#BF2659"/>
<path fill-rule="evenodd" clip-rule="evenodd" d="M70.2777 45.0133C70.2969 44.9898 70.3262 44.9689 70.3326 44.9428C70.3607 44.8332 70.4016 44.7236 70.4016 44.6128C70.4016 44.1627 70.2203 43.8 69.8666 43.5287C69.8129 43.4882 69.7568 43.4478 69.6699 43.4765C69.7031 43.5039 69.7363 43.5313 69.7695 43.5587C70.0262 43.7622 70.21 44.0153 70.2879 44.3414C70.3326 44.5293 70.3377 44.7158 70.2739 44.8998C70.2637 44.9298 70.2586 44.9624 70.2522 44.9924C70.2611 44.9989 70.2701 45.0054 70.2777 45.0107V45.0133Z" fill="#BF2659"/>
<path fill-rule="evenodd" clip-rule="evenodd" d="M48.5728 55.4932C48.5614 55.4971 48.5499 55.4997 48.5396 55.5036C48.5358 55.5206 48.5243 55.5414 48.5307 55.5545C48.8538 56.2759 49.2649 56.9412 49.7642 57.5492C49.7438 57.6757 49.6684 57.7514 49.5573 57.7957C49.3543 57.8779 49.1602 57.8375 49.0121 57.6718C48.9214 57.5714 48.8321 57.4657 48.7644 57.3483C48.5511 56.9712 48.3468 56.5903 48.1438 56.2068C48.0685 56.0659 48.0072 55.9172 47.9382 55.7723C47.9255 55.7476 47.9025 55.728 47.8833 55.7058C47.8731 55.7097 47.8629 55.7136 47.854 55.7162C47.8603 55.7697 47.8629 55.8232 47.8718 55.8767C47.9127 56.0933 48.0136 56.2876 48.1144 56.4781C48.3341 56.8943 48.5511 57.3117 48.841 57.6835C48.7644 57.8127 48.6469 57.814 48.532 57.8023C48.2306 57.7697 48.0161 57.5961 47.8757 57.3339C47.725 57.0521 47.5909 56.7612 47.453 56.4716C47.3726 56.302 47.2998 56.1272 47.2219 55.9563C47.2015 55.9132 47.1836 55.8611 47.1006 55.8597C47.1504 56.2081 47.31 56.5029 47.4479 56.803C47.5858 57.1056 47.7403 57.3991 47.9433 57.6653C48.1298 57.9118 48.6584 57.9875 48.9304 57.7762C49.0721 57.9092 49.2381 57.9732 49.436 57.9405C49.625 57.9079 49.777 57.8271 49.8536 57.6275C50.0094 57.7149 50.1677 57.7423 50.3273 57.6848C50.5686 57.5427 50.6235 57.3339 50.6197 57.3522C50.5942 57.4005 50.5597 57.45 50.5188 57.4839C50.303 57.6601 50.0145 57.6392 49.837 57.4213C49.6825 57.2335 49.5369 57.0365 49.4041 56.8317C49.1475 56.4325 48.9036 56.0241 48.6546 55.6197C48.629 55.5767 48.6009 55.5362 48.5741 55.4945L48.5728 55.4932Z" fill="#BF2659"/>
<path fill-rule="evenodd" clip-rule="evenodd" d="M48.5714 55.4925C48.5982 55.5343 48.6263 55.576 48.6519 55.6177C48.9008 56.0222 49.1447 56.4305 49.4014 56.8297C49.5329 57.0345 49.6798 57.2315 49.8343 57.4194C50.013 57.6372 50.3003 57.6581 50.5161 57.482C50.5583 57.4481 50.5915 57.3985 50.617 57.3502C50.64 57.3085 50.631 57.2641 50.6017 57.2185C50.2161 56.621 49.8662 56.0039 49.5865 55.3464C49.5048 55.1546 49.4486 54.955 49.4359 54.745C49.4116 54.3771 49.3899 54.0092 49.3707 53.6413C49.3695 53.6165 49.395 53.5891 49.4078 53.563C49.4295 53.5839 49.4525 53.6035 49.4716 53.6257C49.4767 53.6309 49.4755 53.6439 49.4767 53.6531C49.5099 53.9922 49.7423 54.1866 49.9952 54.3432C50.2607 54.5076 50.557 54.5206 50.8519 54.4019C50.949 54.3627 51.0294 54.3001 51.0882 54.2114C51.1546 54.111 51.1495 54.0405 51.0601 53.9622C50.9975 53.9074 50.926 53.8631 50.8583 53.8135C50.7077 53.7052 50.5493 53.6048 50.4063 53.4861C50.1816 53.2982 50.0117 53.0608 49.8751 52.7999C49.7819 52.6198 49.6938 52.4372 49.6031 52.2572C49.5929 52.2363 49.5802 52.2154 49.5725 52.1932C49.4869 51.9793 49.3248 51.8723 49.1039 51.8449C48.9021 51.8201 48.7004 51.7888 48.4973 51.7693C48.4399 51.764 48.4131 51.7419 48.3939 51.6962C48.3582 51.6088 48.3148 51.524 48.2905 51.4327C48.1181 50.7843 47.9598 50.132 47.9061 49.4602C47.8844 49.1927 47.8806 48.9214 47.8895 48.6526C47.9036 48.2443 48.0134 47.8581 48.2113 47.5033C48.3301 47.2906 48.4565 47.0793 48.6008 46.8836C48.9111 46.4609 49.2354 46.0474 49.5546 45.6312C49.6772 45.4708 49.8113 45.3168 49.8802 45.1237C49.9096 45.0429 49.9185 44.9502 49.9211 44.8628C49.9249 44.7037 49.8266 44.6202 49.69 44.5693C49.6402 44.551 48.9302 44.6684 48.8919 44.7037C48.8204 44.7702 48.7451 44.8341 48.6787 44.9059C47.8985 45.7539 47.3507 46.5066 46.7863 47.515C46.2449 48.4739 46.951 50.95 47.0583 51.4457C47.0838 51.5605 47.1106 51.6766 47.1336 51.7914C47.1796 52.0276 46.9293 52.1176 46.7084 52.5403C46.4965 52.9434 46.4007 53.3804 46.3445 53.8292C46.2577 54.5271 46.3547 55.2055 46.5488 55.8748C46.6727 56.3027 46.845 56.711 47.0276 57.1141C47.0787 57.225 47.1426 57.3294 47.2039 57.435C47.3494 57.6868 47.6444 57.7781 47.9419 57.6633C47.7389 57.3959 47.5844 57.1024 47.4465 56.801C47.3086 56.4996 47.1489 56.2061 47.0991 55.8578C47.1821 55.8578 47.2013 55.9113 47.2205 55.9543C47.2983 56.1252 47.3711 56.3 47.4516 56.4696C47.5895 56.7593 47.7235 57.0502 47.8742 57.332C48.0147 57.5942 48.2292 57.7677 48.5305 57.8003C48.6455 57.8134 48.7629 57.8107 48.8396 57.6816C48.5497 57.3085 48.3326 56.891 48.113 56.4762C48.0121 56.2857 47.9113 56.0913 47.8704 55.8748C47.8602 55.8226 47.8576 55.7678 47.8525 55.7143C47.8627 55.7104 47.8729 55.7078 47.8832 55.7039C47.901 55.726 47.9253 55.7456 47.9381 55.7704C48.0083 55.9139 48.0683 56.0626 48.1437 56.2048C48.3467 56.587 48.551 56.9693 48.7642 57.345C48.8306 57.4624 48.9213 57.5681 49.0119 57.6685C49.1601 57.8342 49.3529 57.8734 49.5572 57.7925C49.6683 57.7481 49.7436 57.6725 49.764 57.5459C49.2635 56.938 48.8536 56.2726 48.5305 55.5512C48.5254 55.5382 48.5369 55.5173 48.5395 55.5003C48.551 55.4977 48.5625 55.4938 48.5727 55.4899L48.5714 55.4925Z" fill="url(#paint26_linear_193_2269)"/>
<path fill-rule="evenodd" clip-rule="evenodd" d="M56.0822 63.0003C61.8755 63.0003 66.6 62.7355 66.6 62.4093C66.6 62.0832 61.8755 61.8184 56.0822 61.8184C50.289 61.8184 45.5645 62.0832 45.5645 62.4093C45.5645 62.7355 50.289 63.0003 56.0822 63.0003Z" fill="url(#paint27_radial_193_2269)"/>
<path fill-rule="evenodd" clip-rule="evenodd" d="M59.9534 62.7951C62.1484 62.7951 63.9386 62.6216 63.9386 62.4102C63.9386 62.1989 62.1484 62.0254 59.9534 62.0254C57.7585 62.0254 55.9683 62.1989 55.9683 62.4102C55.9683 62.6216 57.7585 62.7951 59.9534 62.7951Z" fill="url(#paint28_radial_193_2269)"/>
<path fill-rule="evenodd" clip-rule="evenodd" d="M52.0841 62.7951C54.2854 62.7951 56.0808 62.6216 56.0808 62.4102C56.0808 62.1989 54.2854 62.0254 52.0841 62.0254C49.8827 62.0254 48.0874 62.1989 48.0874 62.4102C48.0874 62.6216 49.8827 62.7951 52.0841 62.7951Z" fill="url(#paint29_radial_193_2269)"/>
<path fill-rule="evenodd" clip-rule="evenodd" d="M53.393 47.8919H54.8321V58.8882H53.393V53.8669C53.2615 53.6086 53.1836 53.289 53.1836 52.9432C53.1836 52.5975 53.2615 52.2792 53.393 52.0196V47.8906V47.8919Z" fill="url(#paint30_linear_193_2269)"/>
<path fill-rule="evenodd" clip-rule="evenodd" d="M57.3301 47.8916H58.7691V52.0206C58.9007 52.2789 58.9785 52.5985 58.9785 52.9442C58.9785 53.2899 58.9007 53.6083 58.7691 53.8679V58.8892H57.3301V47.8929V47.8916Z" fill="url(#paint31_linear_193_2269)"/>
<path fill-rule="evenodd" clip-rule="evenodd" d="M56.0796 21.2715C63.5737 21.2715 69.6492 27.4787 69.6492 35.1352C69.6492 42.7918 63.5737 48.9989 56.0796 48.9989L43.6963 47.1556L42.5088 35.1352C42.5088 27.4787 48.5843 21.2715 56.0784 21.2715H56.0796Z" fill="url(#paint32_linear_193_2269)"/>
<path fill-rule="evenodd" clip-rule="evenodd" d="M43.4252 35.7607C42.6285 31.6657 45.1759 26.7618 48.8188 23.9126C51.8361 21.5513 52.5014 23.2642 51.0738 23.8852C48.1549 25.1545 43.6193 28.7369 43.4252 35.7607Z" fill="url(#paint33_radial_193_2269)"/>
<path d="M62.8011 43.2216C66.2827 43.2216 69.1051 40.8315 69.1051 37.8832C69.1051 34.935 66.2827 32.5449 62.8011 32.5449C59.3195 32.5449 56.4971 34.935 56.4971 37.8832C56.4971 40.8315 59.3195 43.2216 62.8011 43.2216Z" fill="url(#paint34_radial_193_2269)"/>
<path d="M48.6488 43.2216C52.1304 43.2216 54.9528 40.8315 54.9528 37.8832C54.9528 34.935 52.1304 32.5449 48.6488 32.5449C45.1671 32.5449 42.3447 34.935 42.3447 37.8832C42.3447 40.8315 45.1671 43.2216 48.6488 43.2216Z" fill="url(#paint35_radial_193_2269)"/>
<path d="M51.8441 37.0892C53.9002 36.9025 55.4188 35.0482 55.236 32.9476C55.0532 30.847 53.2383 29.2955 51.1823 29.4822C49.1262 29.6689 47.6076 31.5232 47.7904 33.6238C47.9732 35.7244 49.7881 37.2759 51.8441 37.0892Z" fill="url(#paint36_linear_193_2269)"/>
<path fill-rule="evenodd" clip-rule="evenodd" d="M60.2436 29.4812C58.1917 29.7069 56.7066 31.5907 56.9275 33.6872C57.1484 35.7836 58.9923 37.3009 61.0442 37.0752C63.0962 36.8495 64.5812 34.9657 64.3603 32.8692C64.1394 30.7728 62.2956 29.2555 60.2436 29.4812Z" fill="url(#paint37_linear_193_2269)"/>
<path fill-rule="evenodd" clip-rule="evenodd" d="M51.6981 29.4821C53.4704 29.6883 54.7971 31.2629 54.8661 33.1245C53.5611 33.1245 50.6574 33.1102 48.9617 32.1096L48.1177 31.623C48.751 30.2075 50.1633 29.3047 51.6981 29.4821Z" fill="#590836"/>
<path fill-rule="evenodd" clip-rule="evenodd" d="M47.23 31.0986L48.9602 31.3635L48.6716 31.9505L47.23 31.0986Z" fill="#590836"/>
<path fill-rule="evenodd" clip-rule="evenodd" d="M47.7778 30.9051L49.2322 30.8125L48.9436 31.3983L47.7778 30.9051Z" fill="#590836"/>
<path d="M54.7082 34.5701C55.3323 32.8455 54.4698 30.9305 52.7818 30.2929C51.0938 29.6553 49.2194 30.5365 48.5953 32.2611C47.9713 33.9857 48.8337 35.9007 50.5218 36.5383C52.2098 37.1759 54.0841 36.2947 54.7082 34.5701Z" fill="white"/>
<path fill-rule="evenodd" clip-rule="evenodd" d="M54.7049 32.2595C54.8747 32.7265 54.9436 33.2405 54.8874 33.7702C54.6946 35.5979 53.0883 36.9207 51.2981 36.7237C49.5092 36.5267 48.2144 34.8856 48.4072 33.0566C48.4736 32.4278 48.7073 31.859 49.0584 31.3906C48.955 31.6476 48.8835 31.9242 48.8528 32.2151C48.6792 33.8641 49.8463 35.3461 51.4615 35.5235C53.0755 35.7009 54.5261 34.5086 54.6997 32.8583C54.7214 32.6548 54.7227 32.4539 54.7049 32.2582V32.2595Z" fill="url(#paint38_linear_193_2269)"/>
<path fill-rule="evenodd" clip-rule="evenodd" d="M51.9966 30.1028C53.7102 30.2919 54.9692 31.8039 54.9041 33.5364C54.8428 31.9135 53.6246 30.5385 51.9966 30.3585C50.2076 30.1615 48.6 31.4843 48.4072 33.312C48.3996 33.3903 48.3932 33.4673 48.3906 33.5442C48.3842 33.3838 48.3906 33.2194 48.4072 33.055C48.6 31.2273 50.2064 29.9045 51.9966 30.1015V30.1028Z" fill="#E6E7E7"/>
<path fill-rule="evenodd" clip-rule="evenodd" d="M52.4283 31.7579C53.2494 31.8479 53.8431 32.6019 53.755 33.4408C53.6669 34.2796 52.9289 34.8862 52.1078 34.7962C51.2868 34.7062 50.693 33.9522 50.7811 33.1133C50.8692 32.2745 51.6073 31.6679 52.4283 31.7579Z" fill="#547134"/>
<path fill-rule="evenodd" clip-rule="evenodd" d="M52.415 34.6712C53.1683 34.5877 53.7136 33.8962 53.6319 33.1265C53.5501 32.3568 52.8734 31.7998 52.12 31.8833C51.3666 31.9668 50.8214 32.6582 50.9031 33.4279C50.9848 34.1976 51.6616 34.7547 52.415 34.6712Z" fill="#A5CD39"/>
<path fill-rule="evenodd" clip-rule="evenodd" d="M52.3712 34.2535C52.8985 34.1948 53.2803 33.7108 53.2241 33.172C53.1667 32.6332 52.6929 32.2431 52.1656 32.3005C51.6382 32.3592 51.2564 32.8432 51.3126 33.382C51.3701 33.9208 51.8438 34.3109 52.3712 34.2535Z" fill="#547134"/>
<path fill-rule="evenodd" clip-rule="evenodd" d="M52.393 34.4404C52.9114 34.383 53.311 33.9825 53.3979 33.4828C53.1885 33.5063 52.9714 33.5193 52.7479 33.5193C52.1542 33.5193 51.5987 33.4306 51.125 33.2754C51.125 33.3171 51.1276 33.3602 51.1314 33.4019C51.1991 34.0451 51.7634 34.5095 52.393 34.4404Z" fill="url(#paint39_linear_193_2269)"/>
<path fill-rule="evenodd" clip-rule="evenodd" d="M52.7242 32.1095C53.0089 32.1408 53.2145 32.4018 53.1839 32.6927C53.1532 32.9836 52.8979 33.1936 52.6131 33.1623C52.3284 33.131 52.1228 32.8701 52.1534 32.5792C52.1841 32.2883 52.4394 32.0782 52.7242 32.1095Z" fill="white"/>
<path fill-rule="evenodd" clip-rule="evenodd" d="M51.9026 34.1C52.0188 34.113 52.1018 34.2187 52.0891 34.3374C52.0763 34.4561 51.9729 34.5409 51.8567 34.5279C51.7405 34.5148 51.6575 34.4091 51.6702 34.2904C51.683 34.1717 51.7864 34.0869 51.9026 34.1Z" fill="white"/>
<path fill-rule="evenodd" clip-rule="evenodd" d="M51.4932 34.0044C51.5455 34.0096 51.5838 34.0592 51.5787 34.1127C51.5736 34.1661 51.5251 34.2053 51.4727 34.2001C51.4204 34.1948 51.3821 34.1453 51.3872 34.0918C51.3923 34.0383 51.4408 33.9992 51.4932 34.0044Z" fill="white"/>
<path fill-rule="evenodd" clip-rule="evenodd" d="M60.4619 29.4812C58.6896 29.6873 57.3629 31.2619 57.2939 33.1235C58.5989 33.1235 61.5026 33.1092 63.1983 32.1086L64.0423 31.622C63.409 30.2065 61.9967 29.3037 60.4619 29.4812Z" fill="#590836"/>
<path fill-rule="evenodd" clip-rule="evenodd" d="M64.9319 31.0986L63.2017 31.3635L63.489 31.9505L64.9319 31.0986Z" fill="#590836"/>
<path fill-rule="evenodd" clip-rule="evenodd" d="M64.3826 30.9041L62.9282 30.8115L63.2168 31.3973L64.3826 30.9041Z" fill="#590836"/>
<path d="M63.1566 35.3519C64.2061 33.8581 63.8716 31.778 62.4095 30.7058C60.9475 29.6337 58.9115 29.9754 57.8621 31.4692C56.8126 32.9629 57.1471 35.043 58.6092 36.1152C60.0712 37.1874 62.1072 36.8456 63.1566 35.3519Z" fill="white"/>
<path fill-rule="evenodd" clip-rule="evenodd" d="M57.4557 32.2595C57.2859 32.7265 57.2169 33.2405 57.2731 33.7702C57.4659 35.5979 59.0723 36.9207 60.8625 36.7237C62.6514 36.5267 63.9462 34.8856 63.7534 33.0566C63.687 32.4278 63.4533 31.859 63.1021 31.3906C63.2056 31.6476 63.2771 31.9242 63.3077 32.2151C63.4814 33.8641 62.3143 35.3461 60.699 35.5235C59.085 35.7009 57.6345 34.5086 57.4608 32.8583C57.4391 32.6548 57.4378 32.4539 57.4557 32.2582V32.2595Z" fill="url(#paint40_linear_193_2269)"/>
<path fill-rule="evenodd" clip-rule="evenodd" d="M60.1638 30.1028C58.4502 30.2919 57.1912 31.8039 57.2563 33.5364C57.3176 31.9135 58.5358 30.5385 60.1638 30.3585C61.9527 30.1615 63.5604 31.4843 63.7532 33.312C63.7608 33.3903 63.7672 33.4673 63.7698 33.5442C63.7761 33.3838 63.7698 33.2194 63.7532 33.055C63.5604 31.2273 61.954 29.9045 60.1638 30.1015V30.1028Z" fill="#E6E7E7"/>
<path fill-rule="evenodd" clip-rule="evenodd" d="M60.0548 31.7579C60.8758 31.8479 61.4696 32.6019 61.3815 33.4408C61.2934 34.2796 60.5553 34.8862 59.7343 34.7962C58.9132 34.7062 58.3195 33.9522 58.4076 33.1133C58.4957 32.2745 59.2337 31.6679 60.0548 31.7579Z" fill="#547134"/>
<path fill-rule="evenodd" clip-rule="evenodd" d="M60.0395 34.6712C60.7928 34.5877 61.3381 33.8962 61.2564 33.1265C61.1746 32.3568 60.4979 31.7998 59.7445 31.8833C58.9911 31.9668 58.4459 32.6582 58.5276 33.4279C58.6094 34.1976 59.2861 34.7547 60.0395 34.6712Z" fill="#A5CD39"/>
<path fill-rule="evenodd" clip-rule="evenodd" d="M59.9967 34.2535C60.524 34.1948 60.9058 33.7108 60.8496 33.172C60.7922 32.6332 60.3184 32.2431 59.7911 32.3005C59.2637 32.3592 58.8819 32.8432 58.9381 33.382C58.9956 33.9208 59.4693 34.3109 59.9967 34.2535Z" fill="#547134"/>
<path fill-rule="evenodd" clip-rule="evenodd" d="M60.0165 34.4394C60.5349 34.382 60.9346 33.9815 61.0214 33.4818C60.812 33.5053 60.5949 33.5184 60.3715 33.5184C59.7777 33.5184 59.2223 33.4297 58.7485 33.2744C58.7485 33.3162 58.7511 33.3592 58.7549 33.401C58.8226 34.0441 59.387 34.5085 60.0165 34.4394Z" fill="url(#paint41_linear_193_2269)"/>
<path fill-rule="evenodd" clip-rule="evenodd" d="M60.3507 32.1095C60.6354 32.1408 60.841 32.4018 60.8103 32.6927C60.7797 32.9836 60.5243 33.1936 60.2396 33.1623C59.9548 33.131 59.7492 32.8701 59.7799 32.5792C59.8105 32.2883 60.0659 32.0782 60.3507 32.1095Z" fill="white"/>
<path fill-rule="evenodd" clip-rule="evenodd" d="M59.5271 34.099C59.6433 34.112 59.7263 34.2177 59.7136 34.3364C59.7008 34.4551 59.5974 34.5399 59.4812 34.5269C59.365 34.5138 59.282 34.4082 59.2948 34.2894C59.3075 34.1707 59.411 34.0859 59.5271 34.099Z" fill="white"/>
<path fill-rule="evenodd" clip-rule="evenodd" d="M59.1167 34.0044C59.169 34.0096 59.2074 34.0592 59.2022 34.1127C59.1971 34.1661 59.1486 34.2053 59.0963 34.2001C59.0439 34.1948 59.0056 34.1453 59.0107 34.0918C59.0158 34.0383 59.0643 33.9992 59.1167 34.0044Z" fill="white"/>
<path fill-rule="evenodd" clip-rule="evenodd" d="M52.1945 28.7377C50.9674 28.8329 49.0342 29.2074 48.6575 29.66C48.457 29.9014 48.3587 29.8518 48.5171 29.2726C48.6537 28.7677 50.5741 27.9628 52.1664 27.728C52.4678 27.6836 52.7666 27.848 52.7895 28.0698L52.8036 28.2107C52.8317 28.482 52.5699 28.709 52.1932 28.7377H52.1945Z" fill="#BD1F4D"/>
<path fill-rule="evenodd" clip-rule="evenodd" d="M52.1945 28.557C50.9674 28.711 49.0342 29.178 48.6575 29.649C48.457 29.9008 48.3587 29.8551 48.5171 29.268C48.6537 28.7566 50.5741 27.8591 52.1664 27.5499C52.4678 27.4912 52.7666 27.6412 52.7895 27.8617L52.8036 28.0013C52.8317 28.2713 52.5699 28.5101 52.1932 28.557H52.1945Z" fill="#590836"/>
<path fill-rule="evenodd" clip-rule="evenodd" d="M52.0953 28.1812C51.2781 28.3077 50.1033 28.6104 49.4994 28.823C49.0039 28.9978 48.5596 29.2888 48.8788 29.0278C49.4674 28.5465 51.0278 27.9724 52.0902 27.7663C52.6278 27.662 52.689 28.0886 52.0953 28.1812Z" fill="url(#paint42_linear_193_2269)"/>
<path fill-rule="evenodd" clip-rule="evenodd" d="M59.9676 28.7377C61.1947 28.8329 63.1279 29.2074 63.5046 29.66C63.7051 29.9014 63.8034 29.8518 63.645 29.2726C63.5084 28.7677 61.588 27.9628 59.9957 27.728C59.6943 27.6836 59.3955 27.848 59.3726 28.0698L59.3585 28.2107C59.3304 28.482 59.5922 28.709 59.9689 28.7377H59.9676Z" fill="#BD1F4D"/>
<path fill-rule="evenodd" clip-rule="evenodd" d="M59.9676 28.557C61.1947 28.711 63.1279 29.178 63.5046 29.649C63.7051 29.9008 63.8034 29.8551 63.645 29.268C63.5084 28.7566 61.588 27.8591 59.9957 27.5499C59.6943 27.4912 59.3955 27.6412 59.3726 27.8617L59.3585 28.0013C59.3304 28.2713 59.5922 28.5101 59.9689 28.557H59.9676Z" fill="#590836"/>
<path fill-rule="evenodd" clip-rule="evenodd" d="M60.07 28.1812C60.8872 28.3077 62.062 28.6104 62.6659 28.823C63.1614 28.9978 63.6057 29.2888 63.2865 29.0278C62.6979 28.5465 61.1375 27.9724 60.0751 27.7663C59.5375 27.662 59.4763 28.0886 60.07 28.1812Z" fill="url(#paint43_linear_193_2269)"/>
<path fill-rule="evenodd" clip-rule="evenodd" d="M52.4249 31.721C53.2473 31.811 53.8423 32.5664 53.7529 33.4065C53.6648 34.2467 52.9255 34.8546 52.1044 34.7633C51.2821 34.6732 50.6871 33.9179 50.7765 33.0778C50.8646 32.2376 51.6039 31.6297 52.4249 31.721Z" fill="#453064"/>
<path fill-rule="evenodd" clip-rule="evenodd" d="M52.4111 34.6367C53.1658 34.5533 53.711 33.8618 53.6306 33.0908C53.5488 32.3198 52.8721 31.7628 52.1174 31.845C51.3628 31.9284 50.8176 32.6199 50.898 33.3909C50.9797 34.1619 51.6565 34.7189 52.4111 34.6367Z" fill="#7671B1"/>
<path fill-rule="evenodd" clip-rule="evenodd" d="M52.3678 34.2189C52.8964 34.1602 53.2782 33.6762 53.2208 33.1361C53.1633 32.596 52.6896 32.2059 52.1609 32.2646C51.6323 32.3233 51.2505 32.8073 51.308 33.3474C51.3654 33.8875 51.8392 34.2776 52.3678 34.2189Z" fill="#453064"/>
<path fill-rule="evenodd" clip-rule="evenodd" d="M52.3874 34.4055C52.9058 34.3481 53.3068 33.9463 53.3936 33.4467C53.1842 33.4702 52.9658 33.4832 52.7436 33.4832C52.1499 33.4832 51.5932 33.3945 51.1182 33.2393C51.1182 33.281 51.1207 33.3241 51.1245 33.3658C51.1922 34.009 51.7579 34.4747 52.3874 34.4055Z" fill="url(#paint44_linear_193_2269)"/>
<path fill-rule="evenodd" clip-rule="evenodd" d="M52.7213 32.0724C53.006 32.1037 53.2116 32.3647 53.1809 32.6556C53.1503 32.9465 52.8949 33.1565 52.6102 33.1252C52.3254 33.0939 52.1198 32.833 52.1505 32.5421C52.1811 32.2512 52.4365 32.0411 52.7213 32.0724Z" fill="white"/>
<path fill-rule="evenodd" clip-rule="evenodd" d="M51.9014 34.0636C52.0176 34.0766 52.1006 34.1823 52.0891 34.301C52.0764 34.4197 51.9729 34.5045 51.8567 34.4928C51.7405 34.4797 51.6575 34.3741 51.669 34.2554C51.6818 34.1366 51.7852 34.0518 51.9014 34.0636Z" fill="white"/>
<path fill-rule="evenodd" clip-rule="evenodd" d="M51.4878 33.9702C51.5401 33.9754 51.5784 34.025 51.5733 34.0785C51.5682 34.132 51.5197 34.1711 51.4674 34.1659C51.415 34.1607 51.3767 34.1111 51.3818 34.0576C51.3869 34.0041 51.4354 33.965 51.4878 33.9702Z" fill="white"/>
<path fill-rule="evenodd" clip-rule="evenodd" d="M60.0629 31.721C60.8853 31.811 61.4803 32.5664 61.3909 33.4065C61.3028 34.2467 60.5635 34.8546 59.7412 34.7633C58.9188 34.6732 58.3238 33.9179 58.4132 33.0778C58.5013 32.2376 59.2406 31.6297 60.0629 31.721Z" fill="#453064"/>
<path fill-rule="evenodd" clip-rule="evenodd" d="M60.0508 34.6367C60.8054 34.5533 61.3507 33.8618 61.2702 33.0908C61.1885 32.3198 60.5117 31.7628 59.7571 31.845C59.0024 31.9284 58.4572 32.6199 58.5377 33.3909C58.6194 34.1619 59.2961 34.7189 60.0508 34.6367Z" fill="#7671B1"/>
<path fill-rule="evenodd" clip-rule="evenodd" d="M60.0065 34.2189C60.5351 34.1602 60.9169 33.6762 60.8594 33.1361C60.802 32.596 60.3282 32.2059 59.7996 32.2646C59.271 32.3233 58.8892 32.8073 58.9466 33.3474C59.0041 33.8875 59.4778 34.2776 60.0065 34.2189Z" fill="#453064"/>
<path fill-rule="evenodd" clip-rule="evenodd" d="M60.0254 34.4065C60.5438 34.3491 60.9448 33.9473 61.0316 33.4477C60.8222 33.4711 60.6038 33.4842 60.3804 33.4842C59.7866 33.4842 59.2299 33.3955 58.7549 33.2402C58.7549 33.282 58.7574 33.325 58.7613 33.3668C58.8289 34.0099 59.3946 34.4757 60.0241 34.4065H60.0254Z" fill="url(#paint45_linear_193_2269)"/>
<path fill-rule="evenodd" clip-rule="evenodd" d="M60.3614 32.0734C60.6461 32.1047 60.8517 32.3656 60.8211 32.6565C60.7904 32.9475 60.5351 33.1575 60.2503 33.1262C59.9656 33.0949 59.76 32.834 59.7906 32.5431C59.8213 32.2521 60.0766 32.0421 60.3614 32.0734Z" fill="white"/>
<path fill-rule="evenodd" clip-rule="evenodd" d="M59.5386 34.0646C59.6548 34.0776 59.7378 34.1833 59.7263 34.302C59.7136 34.4207 59.6101 34.5055 59.4939 34.4938C59.3777 34.4807 59.2947 34.3751 59.3062 34.2563C59.319 34.1376 59.4224 34.0528 59.5386 34.0646Z" fill="white"/>
<path fill-rule="evenodd" clip-rule="evenodd" d="M59.1269 33.9702C59.1793 33.9754 59.2176 34.025 59.2125 34.0785C59.2074 34.132 59.1589 34.1711 59.1065 34.1659C59.0542 34.1607 59.0159 34.1111 59.021 34.0576C59.0261 34.0041 59.0746 33.965 59.1269 33.9702Z" fill="white"/>
<path fill-rule="evenodd" clip-rule="evenodd" d="M51.3992 40.1965C53.9096 45.3169 58.5703 45.2935 60.7257 40.5252C61.0206 39.8716 60.6427 40.4183 60.9542 40.0425C59.7246 40.2395 58.4324 39.8664 56.8771 39.8377C56.6039 39.8325 56.3293 40.1326 56.0561 40.1234C55.7394 40.1117 55.424 39.7908 55.1124 39.7738C53.5393 39.6916 52.2177 39.946 51.126 39.7529C51.4235 39.9956 51.1451 39.6799 51.3992 40.1965Z" fill="#BF2659"/>
<path fill-rule="evenodd" clip-rule="evenodd" d="M61.0296 40.0243C58.1527 40.7274 53.6198 40.4078 51.126 39.7529C53.1052 43.2557 58.14 45.1382 61.0296 40.0243Z" fill="#7A1131"/>
<mask id="mask1_193_2269" style="mask-type:luminance" maskUnits="userSpaceOnUse" x="51" y="39" width="11" height="5">
<path d="M61.0266 40.0233C58.1498 40.7265 53.6168 40.4069 51.123 39.752C53.1022 43.2547 58.137 45.1372 61.0266 40.0233Z" fill="white"/>
</mask>
<g mask="url(#mask1_193_2269)">
<path d="M56.1308 50.004C58.9763 50.004 61.2831 47.0947 61.2831 43.5059C61.2831 39.9171 58.9763 37.0078 56.1308 37.0078C53.2853 37.0078 50.9785 39.9171 50.9785 43.5059C50.9785 47.0947 53.2853 50.004 56.1308 50.004Z" fill="url(#paint46_radial_193_2269)"/>
<path fill-rule="evenodd" clip-rule="evenodd" d="M56.7099 42.0264C57.2399 42.2677 57.6089 42.8091 57.6089 43.4405C57.6089 44.295 56.9308 44.9877 56.0945 44.9877C55.2581 44.9877 54.5801 44.295 54.5801 43.4405C54.5801 42.8104 54.9491 42.2677 55.479 42.0264C55.5875 41.9768 55.7025 41.9846 55.8033 42.0485C55.9042 42.1125 55.963 42.2129 55.9681 42.3342C55.977 42.5325 55.6003 43.0126 56.0945 43.0126C56.5886 43.0126 56.2107 42.5325 56.2209 42.3342C56.226 42.2129 56.2847 42.1125 56.3856 42.0485C56.4865 41.9846 56.6014 41.9768 56.7099 42.0264Z" fill="#291115"/>
<path fill-rule="evenodd" clip-rule="evenodd" d="M51.6611 38.1147C54.787 38.0325 57.3012 38.3391 60.427 38.2569C60.427 38.2569 60.3989 40.1838 60.2968 40.8778L60.0082 41.1074C59.3097 41.3514 55.1228 41.5405 52.1796 40.7708L51.8705 40.5569C51.7275 39.8237 51.6611 38.1134 51.6611 38.1134V38.1147Z" fill="#D0D2D3"/>
<path fill-rule="evenodd" clip-rule="evenodd" d="M51.3213 37.9022C54.6872 37.8135 57.3916 38.1162 60.7575 38.0275L60.3004 40.8793C59.8318 40.9941 59.3019 41.0723 58.7234 41.118L58.1935 41.1493C56.3803 41.225 53.944 41.0867 51.8729 40.5583L51.3213 37.9022Z" fill="white"/>
<path fill-rule="evenodd" clip-rule="evenodd" d="M51.7652 40.051C52.9247 40.265 54.4518 40.4959 56.1769 40.5285C57.902 40.5598 59.3372 40.4724 60.3881 40.3224C60.3932 40.2506 60.4711 39.858 60.4749 39.7836C59.3142 39.8123 57.8739 40.3198 56.1782 40.2885C54.4825 40.2572 52.8391 39.6584 51.6299 39.5762C51.6375 39.6505 51.7589 39.9819 51.7678 40.0523L51.7652 40.051Z" fill="#BBBDBF"/>
<path fill-rule="evenodd" clip-rule="evenodd" d="M55.3637 43.2834C55.6574 43.3069 55.937 43.3617 56.2 43.4452C56.4733 43.4034 56.7593 43.393 57.053 43.4152C58.7117 43.5443 59.9669 44.7197 59.8558 46.0387C59.5787 49.3171 51.8816 48.7157 52.1587 45.4373C52.2698 44.1183 53.705 43.1529 55.365 43.2821L55.3637 43.2834Z" fill="#A31D30"/>
</g>
<path fill-rule="evenodd" clip-rule="evenodd" d="M52.6743 44.5391C54.0342 46.2598 58.345 46.3876 59.6921 44.6108C58.1356 45.5579 54.1568 45.4771 52.6743 44.5391Z" fill="#BF2659"/>
<path fill-rule="evenodd" clip-rule="evenodd" d="M46.8066 22.8546C47.4131 22.5689 56.1356 18.543 56.1356 19.7836V24.2753C54.8574 24.2753 41.7731 27.2954 43.1023 40.9634C40.5588 34.4157 44.4418 25.8734 46.8066 22.8559V22.8546Z" fill="#BF2659"/>
<path fill-rule="evenodd" clip-rule="evenodd" d="M65.4652 22.8546C64.8587 22.5689 56.1362 18.543 56.1362 19.7836V24.2753C57.4144 24.2753 70.4987 27.2954 69.1695 40.9634C71.8293 34.8606 67.83 25.8734 65.4652 22.8559V22.8546Z" fill="#BF2659"/>
<path fill-rule="evenodd" clip-rule="evenodd" d="M46.8064 21.5138C47.6096 20.0931 52.1017 17 56.1354 17C58.2219 17 56.1354 21.4369 56.1354 23.0389C54.8573 23.0389 41.7729 26.2821 43.1022 40.9624C38.1797 35.7768 42.9387 23.7955 46.8064 21.5138Z" fill="#3F1145"/>
<path fill-rule="evenodd" clip-rule="evenodd" d="M50.0578 20.0186C46.7749 21.2501 40.8859 25.9661 42.233 36.177C42.5803 27.1311 46.3523 22.6812 50.0578 20.0186Z" fill="#8B3592"/>
<path fill-rule="evenodd" clip-rule="evenodd" d="M65.4643 21.5138C64.6611 20.0931 60.169 17 56.1353 17C54.0489 17 56.1353 21.4369 56.1353 23.0389C57.4135 23.0389 70.4978 26.2821 69.1686 40.9624C74.091 35.7768 69.332 23.7955 65.4643 21.5138Z" fill="#3F1145"/>
<path fill-rule="evenodd" clip-rule="evenodd" d="M56.1362 19.9517C56.1362 19.2173 56.1362 19.5108 56.1362 19.1416C63.3086 19.1416 69.4785 25.7375 69.1682 34.0151C68.6498 27.0108 63.389 19.953 56.1362 19.953V19.9517Z" fill="#27122B"/>
<path fill-rule="evenodd" clip-rule="evenodd" d="M56.1362 22.4732C56.1362 21.7388 56.1362 22.0323 56.1362 21.6631C58.1882 21.6631 62.3407 23.2468 64.1321 25.9043C62.3151 23.9304 58.7871 22.678 56.1362 22.4745V22.4732Z" fill="#8B3592"/>
<path fill-rule="evenodd" clip-rule="evenodd" d="M56.135 19.9517C56.135 19.2173 56.135 19.5108 56.135 19.1416C48.9627 19.1416 42.7927 25.7375 43.103 34.0151C43.6214 27.0108 48.8822 19.953 56.135 19.953V19.9517Z" fill="#27122B"/>
<path fill-rule="evenodd" clip-rule="evenodd" d="M56.1365 22.4732C56.1365 21.7388 56.1365 22.0323 56.1365 21.6631C54.0846 21.6631 49.9321 23.2468 48.1406 25.9043C49.9576 23.9304 53.4857 22.678 56.1365 22.4745V22.4732Z" fill="#8B3592"/>
<path fill-rule="evenodd" clip-rule="evenodd" d="M62.1519 20.0186C65.4348 21.2501 71.3238 25.9661 69.9767 36.177C69.6294 27.1311 65.8574 22.6812 62.1519 20.0186Z" fill="#8B3592"/>
<path fill-rule="evenodd" clip-rule="evenodd" d="M52.9147 57.0459H55.1225V59.5011C55.1225 59.5011 55.8542 60.7026 55.4392 62.5277H51.2446C51.2446 62.5277 49.7927 62.5564 49.6484 61.9185L49.8183 61.7854C49.8183 61.7854 49.7557 61.4449 50.5103 61.2962C51.2356 61.1527 52.6823 60.2578 52.9135 59.4646V57.0459H52.9147Z" fill="#3F1145"/>
<path fill-rule="evenodd" clip-rule="evenodd" d="M55.5363 61.9642C54.359 62.0607 50.8948 62.216 49.8605 61.6289C49.8196 61.698 49.8183 61.7541 49.8196 61.775C49.8196 61.775 49.8196 61.7763 49.8196 61.7776C50.7211 62.4482 54.3539 62.2055 55.5171 62.109C55.5184 62.0999 55.5197 62.092 55.521 62.0855C55.5261 62.0451 55.5312 62.0046 55.5363 61.9642Z" fill="#A4DBDA"/>
<path fill-rule="evenodd" clip-rule="evenodd" d="M59.2431 57.0459H57.0354V59.5011C57.0354 59.5011 56.3037 60.7026 56.7187 62.5277H60.9133C60.9133 62.5277 62.3651 62.5564 62.5094 61.9185L62.3396 61.7854C62.3396 61.7854 62.4022 61.4449 61.6475 61.2962C60.9223 61.1527 59.4755 60.2578 59.2444 59.4646V57.0459H59.2431Z" fill="#3F1145"/>
<path fill-rule="evenodd" clip-rule="evenodd" d="M56.6226 61.9642C57.7999 62.0607 61.2641 62.216 62.2984 61.6289C62.3392 61.698 62.3405 61.7541 62.3392 61.775C62.3392 61.775 62.3392 61.7763 62.3392 61.7776C61.4377 62.4482 57.805 62.2055 56.6417 62.109C56.6417 62.0999 56.6392 62.092 56.6379 62.0855C56.6328 62.0451 56.6277 62.0046 56.6226 61.9642Z" fill="#A4DBDA"/>
<path d="M55.2604 56.7383H52.7781C52.6857 56.7383 52.6108 56.8148 52.6108 56.9092C52.6108 57.0036 52.6857 57.0801 52.7781 57.0801H55.2604C55.3528 57.0801 55.4277 57.0036 55.4277 56.9092C55.4277 56.8148 55.3528 56.7383 55.2604 56.7383Z" fill="#A4DBDA"/>
<path d="M59.3805 56.7383H56.8982C56.8058 56.7383 56.731 56.8148 56.731 56.9092C56.731 57.0036 56.8058 57.0801 56.8982 57.0801H59.3805C59.4729 57.0801 59.5478 57.0036 59.5478 56.9092C59.5478 56.8148 59.4729 56.7383 59.3805 56.7383Z" fill="#A4DBDA"/>
<defs>
<filter id="filter0_ii_193_2269" x="-0.0417044" y="0.169233" width="80.6615" height="80.6615" filterUnits="userSpaceOnUse" color-interpolation-filters="sRGB">
<feFlood flood-opacity="0" result="BackgroundImageFix"/>
<feBlend mode="normal" in="SourceGraphic" in2="BackgroundImageFix" result="shape"/>
<feColorMatrix in="SourceAlpha" type="matrix" values="0 0 0 0 0 0 0 0 0 0 0 0 0 0 0 0 0 0 127 0" result="hardAlpha"/>
<feOffset dx="0.619829" dy="0.619829"/>
<feGaussianBlur stdDeviation="0.309915"/>
<feComposite in2="hardAlpha" operator="arithmetic" k2="-1" k3="1"/>
<feColorMatrix type="matrix" values="0 0 0 0 1 0 0 0 0 1 0 0 0 0 1 0 0 0 0.2 0"/>
<feBlend mode="normal" in2="shape" result="effect1_innerShadow_193_2269"/>
<feColorMatrix in="SourceAlpha" type="matrix" values="0 0 0 0 0 0 0 0 0 0 0 0 0 0 0 0 0 0 127 0" result="hardAlpha"/>
<feOffset dx="-0.619829" dy="-0.619829"/>
<feGaussianBlur stdDeviation="0.309915"/>
<feComposite in2="hardAlpha" operator="arithmetic" k2="-1" k3="1"/>
<feColorMatrix type="matrix" values="0 0 0 0 0 0 0 0 0 0 0 0 0 0 0 0 0 0 0.05 0"/>
<feBlend mode="normal" in2="effect1_innerShadow_193_2269" result="effect2_innerShadow_193_2269"/>
</filter>
<linearGradient id="paint0_linear_193_2269" x1="21.6235" y1="56.7158" x2="15.4919" y2="50.2638" gradientUnits="userSpaceOnUse">
<stop stop-color="#3894D1"/>
<stop offset="1" stop-color="#005D95"/>
</linearGradient>
<radialGradient id="paint1_radial_193_2269" cx="0" cy="0" r="1" gradientUnits="userSpaceOnUse" gradientTransform="translate(20.672 62.3775) scale(11.3693 0.565669)">
<stop stop-color="#595A5C"/>
<stop offset="1" stop-color="white" stop-opacity="0"/>
</radialGradient>
<radialGradient id="paint2_radial_193_2269" cx="0" cy="0" r="1" gradientUnits="userSpaceOnUse" gradientTransform="translate(24.8557 62.3869) scale(4.30787 0.385801)">
<stop stop-color="#595A5C"/>
<stop offset="1" stop-color="white" stop-opacity="0"/>
</radialGradient>
<radialGradient id="paint3_radial_193_2269" cx="0" cy="0" r="1" gradientUnits="userSpaceOnUse" gradientTransform="translate(16.3496 62.4007) scale(4.3203 0.386915)">
<stop stop-color="#595A5C"/>
<stop offset="1" stop-color="white" stop-opacity="0"/>
</radialGradient>
<linearGradient id="paint4_linear_193_2269" x1="36.7387" y1="44.8247" x2="29.7518" y2="41.7735" gradientUnits="userSpaceOnUse">
<stop stop-color="#3894D1"/>
<stop offset="1" stop-color="#005D95"/>
</linearGradient>
<linearGradient id="paint5_linear_193_2269" x1="11.4044" y1="56.001" x2="14.517" y2="46.426" gradientUnits="userSpaceOnUse">
<stop stop-color="#3894D1"/>
<stop offset="1" stop-color="#005D95"/>
</linearGradient>
<linearGradient id="paint6_linear_193_2269" x1="25.8788" y1="56.7158" x2="19.7472" y2="50.2638" gradientUnits="userSpaceOnUse">
<stop stop-color="#3894D1"/>
<stop offset="1" stop-color="#005D95"/>
</linearGradient>
<linearGradient id="paint7_linear_193_2269" x1="21.7186" y1="47.4661" x2="19.6801" y2="20.3188" gradientUnits="userSpaceOnUse">
<stop stop-color="#005D95"/>
<stop offset="0.08" stop-color="#0C69A2"/>
<stop offset="0.25" stop-color="#1F7CB6"/>
<stop offset="0.43" stop-color="#2D89C5"/>
<stop offset="0.65" stop-color="#3591CE"/>
<stop offset="1" stop-color="#3894D1"/>
</linearGradient>
<linearGradient id="paint8_linear_193_2269" x1="15.6649" y1="24.5133" x2="6.8409" y2="30.3702" gradientUnits="userSpaceOnUse">
<stop stop-color="#60B2E3" stop-opacity="0.4"/>
<stop offset="0.08" stop-color="#59ADE0" stop-opacity="0.5"/>
<stop offset="0.26" stop-color="#4DA4DA" stop-opacity="0.68"/>
<stop offset="0.45" stop-color="#449DD6" stop-opacity="0.82"/>
<stop offset="0.63" stop-color="#3D98D3" stop-opacity="0.92"/>
<stop offset="0.81" stop-color="#3994D1" stop-opacity="0.98"/>
<stop offset="1" stop-color="#3894D1"/>
</linearGradient>
<linearGradient id="paint9_linear_193_2269" x1="19.4016" y1="17.0198" x2="19.1744" y2="18.6506" gradientUnits="userSpaceOnUse">
<stop stop-color="#60B2E3"/>
<stop offset="0.06" stop-color="#5BAEE0"/>
<stop offset="0.37" stop-color="#479FD8"/>
<stop offset="0.68" stop-color="#3B96D2"/>
<stop offset="1" stop-color="#3894D1"/>
</linearGradient>
<linearGradient id="paint10_linear_193_2269" x1="16.6879" y1="18.1507" x2="17.0409" y2="20.1888" gradientUnits="userSpaceOnUse">
<stop stop-color="#60B2E3"/>
<stop offset="0.06" stop-color="#5BAEE0"/>
<stop offset="0.37" stop-color="#479FD8"/>
<stop offset="0.68" stop-color="#3B96D2"/>
<stop offset="1" stop-color="#3894D1"/>
</linearGradient>
<linearGradient id="paint11_linear_193_2269" x1="23.7283" y1="18.1021" x2="23.4774" y2="18.5637" gradientUnits="userSpaceOnUse">
<stop stop-color="#60B2E3"/>
<stop offset="0.06" stop-color="#5BAEE0"/>
<stop offset="0.37" stop-color="#479FD8"/>
<stop offset="0.68" stop-color="#3B96D2"/>
<stop offset="1" stop-color="#3894D1"/>
</linearGradient>
<radialGradient id="paint12_radial_193_2269" cx="0" cy="0" r="1" gradientUnits="userSpaceOnUse" gradientTransform="translate(20.6679 34.4926) scale(10.7655 5.89192)">
<stop stop-color="#60B2E3" stop-opacity="0.7"/>
<stop offset="1" stop-color="#60B2E3" stop-opacity="0"/>
</radialGradient>
<linearGradient id="paint13_linear_193_2269" x1="13.9216" y1="34.0621" x2="17.693" y2="29.7322" gradientUnits="userSpaceOnUse">
<stop stop-color="#60B2E3"/>
<stop offset="1" stop-color="#0F3D63"/>
</linearGradient>
<linearGradient id="paint14_linear_193_2269" x1="15.8359" y1="35.4472" x2="15.9385" y2="29.9795" gradientUnits="userSpaceOnUse">
<stop stop-color="#E6E7E7"/>
<stop offset="1" stop-color="white"/>
</linearGradient>
<linearGradient id="paint15_linear_193_2269" x1="16.4253" y1="32.9689" x2="16.5553" y2="32.0118" gradientUnits="userSpaceOnUse">
<stop stop-color="#A62823"/>
<stop offset="1" stop-color="#A62823" stop-opacity="0"/>
</linearGradient>
<linearGradient id="paint16_linear_193_2269" x1="27.4536" y1="34.0964" x2="23.7155" y2="29.7365" gradientUnits="userSpaceOnUse">
<stop stop-color="#60B2E3"/>
<stop offset="1" stop-color="#0F3D63"/>
</linearGradient>
<linearGradient id="paint17_linear_193_2269" x1="25.5763" y1="35.4472" x2="25.4723" y2="29.9795" gradientUnits="userSpaceOnUse">
<stop stop-color="#E6E7E7"/>
<stop offset="1" stop-color="white"/>
</linearGradient>
<linearGradient id="paint18_linear_193_2269" x1="24.6915" y1="32.9689" x2="24.8215" y2="32.0118" gradientUnits="userSpaceOnUse">
<stop stop-color="#A62823"/>
<stop offset="1" stop-color="#A62823" stop-opacity="0"/>
</linearGradient>
<linearGradient id="paint19_linear_193_2269" x1="27.8204" y1="24.5246" x2="28.2022" y2="27.1537" gradientUnits="userSpaceOnUse">
<stop stop-color="#2C5681"/>
<stop offset="0.41" stop-color="#1B3960"/>
<stop offset="0.77" stop-color="#10264A"/>
<stop offset="1" stop-color="#0C2043"/>
</linearGradient>
<linearGradient id="paint20_linear_193_2269" x1="13.5944" y1="24.5246" x2="13.2126" y2="27.1537" gradientUnits="userSpaceOnUse">
<stop stop-color="#2C5681"/>
<stop offset="0.11" stop-color="#274E78"/>
<stop offset="0.69" stop-color="#132C51"/>
<stop offset="1" stop-color="#0C2043"/>
</linearGradient>
<linearGradient id="paint21_linear_193_2269" x1="20.624" y1="37.1672" x2="20.6405" y2="38.6727" gradientUnits="userSpaceOnUse">
<stop stop-color="#164C82" stop-opacity="0.5"/>
<stop offset="1" stop-color="#0C2043"/>
</linearGradient>
<linearGradient id="paint22_linear_193_2269" x1="20.6498" y1="42.1664" x2="20.4651" y2="50.4827" gradientUnits="userSpaceOnUse">
<stop stop-color="#164C82" stop-opacity="0.5"/>
<stop offset="1" stop-color="#0C2043"/>
</linearGradient>
<radialGradient id="paint23_radial_193_2269" cx="0" cy="0" r="1" gradientUnits="userSpaceOnUse" gradientTransform="translate(20.7892 42.6783) rotate(-90) scale(6.85209 5.57763)">
<stop stop-color="#35151D"/>
<stop offset="1" stop-color="#33171C" stop-opacity="0"/>
</radialGradient>
<linearGradient id="paint24_linear_193_2269" x1="20.417" y1="42.7957" x2="21.0246" y2="45.5521" gradientUnits="userSpaceOnUse">
<stop stop-color="#E21F4E"/>
<stop offset="1" stop-color="#A01E21"/>
</linearGradient>
<linearGradient id="paint25_linear_193_2269" x1="70.9486" y1="45.5143" x2="64.4312" y2="42.7412" gradientUnits="userSpaceOnUse">
<stop stop-color="#F16D96"/>
<stop offset="0.37" stop-color="#EF5389"/>
<stop offset="0.73" stop-color="#EE4281"/>
<stop offset="1" stop-color="#EE3C7E"/>
</linearGradient>
<linearGradient id="paint26_linear_193_2269" x1="46.3126" y1="51.2018" x2="51.1329" y2="51.2018" gradientUnits="userSpaceOnUse">
<stop stop-color="#F16D96"/>
<stop offset="0.32" stop-color="#EF588B"/>
<stop offset="0.73" stop-color="#EE4381"/>
<stop offset="1" stop-color="#EE3C7E"/>
</linearGradient>
<radialGradient id="paint27_radial_193_2269" cx="0" cy="0" r="1" gradientUnits="userSpaceOnUse" gradientTransform="translate(56.0822 62.1867) scale(10.5178 0.537289)">
<stop stop-color="#595A5C"/>
<stop offset="1" stop-color="white" stop-opacity="0"/>
</radialGradient>
<radialGradient id="paint28_radial_193_2269" cx="0" cy="0" r="1" gradientUnits="userSpaceOnUse" gradientTransform="translate(59.9535 62.1958) scale(3.98519 0.366442)">
<stop stop-color="#595A5C"/>
<stop offset="1" stop-color="white" stop-opacity="0"/>
</radialGradient>
<radialGradient id="paint29_radial_193_2269" cx="0" cy="0" r="1" gradientUnits="userSpaceOnUse" gradientTransform="translate(52.0841 62.2089) scale(3.99668 0.367499)">
<stop stop-color="#595A5C"/>
<stop offset="1" stop-color="white" stop-opacity="0"/>
</radialGradient>
<linearGradient id="paint30_linear_193_2269" x1="51.4662" y1="56.5191" x2="56.888" y2="50.3761" gradientUnits="userSpaceOnUse">
<stop stop-color="#F06C95"/>
<stop offset="0.19" stop-color="#EF578B"/>
<stop offset="0.4" stop-color="#EE4783"/>
<stop offset="0.65" stop-color="#EE3E7F"/>
<stop offset="1" stop-color="#EE3C7E"/>
</linearGradient>
<linearGradient id="paint31_linear_193_2269" x1="55.4032" y1="56.5188" x2="60.8251" y2="50.3758" gradientUnits="userSpaceOnUse">
<stop stop-color="#F06C95"/>
<stop offset="0.19" stop-color="#EF578B"/>
<stop offset="0.4" stop-color="#EE4783"/>
<stop offset="0.65" stop-color="#EE3E7F"/>
<stop offset="1" stop-color="#EE3C7E"/>
</linearGradient>
<linearGradient id="paint32_linear_193_2269" x1="57.0513" y1="48.0244" x2="55.0632" y2="22.2459" gradientUnits="userSpaceOnUse">
<stop stop-color="#EE3C7E"/>
<stop offset="0.38" stop-color="#EF568A"/>
<stop offset="0.74" stop-color="#F06793"/>
<stop offset="1" stop-color="#F16D96"/>
</linearGradient>
<radialGradient id="paint33_radial_193_2269" cx="0" cy="0" r="1" gradientUnits="userSpaceOnUse" gradientTransform="translate(47.5814 29.2326) rotate(-90) scale(6.5294 4.28188)">
<stop stop-color="#BE70AE" stop-opacity="0.7"/>
<stop offset="1" stop-color="#9A3393" stop-opacity="0"/>
</radialGradient>
<radialGradient id="paint34_radial_193_2269" cx="0" cy="0" r="1" gradientUnits="userSpaceOnUse" gradientTransform="translate(62.8011 37.9063) scale(6.30403 5.34577)">
<stop stop-color="#F8B3C2" stop-opacity="0.5"/>
<stop offset="1" stop-color="#F8B3C2" stop-opacity="0"/>
</radialGradient>
<radialGradient id="paint35_radial_193_2269" cx="0" cy="0" r="1" gradientUnits="userSpaceOnUse" gradientTransform="translate(48.6488 20.627) scale(6.30403 5.34577)">
<stop stop-color="#F8B3C2" stop-opacity="0.5"/>
<stop offset="1" stop-color="#F8B3C2" stop-opacity="0"/>
</radialGradient>
<linearGradient id="paint36_linear_193_2269" x1="50.7332" y1="30.2586" x2="52.36" y2="36.2828" gradientUnits="userSpaceOnUse">
<stop stop-color="#981A39"/>
<stop offset="1" stop-color="#F181A9"/>
</linearGradient>
<linearGradient id="paint37_linear_193_2269" x1="61.426" y1="30.2575" x2="59.798" y2="36.2817" gradientUnits="userSpaceOnUse">
<stop stop-color="#BF2659"/>
<stop offset="1" stop-color="#F181A9"/>
</linearGradient>
<linearGradient id="paint38_linear_193_2269" x1="51.5867" y1="36.682" x2="51.6866" y2="31.5016" gradientUnits="userSpaceOnUse">
<stop stop-color="#E6E7E7"/>
<stop offset="1" stop-color="white"/>
</linearGradient>
<linearGradient id="paint39_linear_193_2269" x1="52.1325" y1="34.3347" x2="52.259" y2="33.4288" gradientUnits="userSpaceOnUse">
<stop stop-color="#547134"/>
<stop offset="1" stop-color="#547134" stop-opacity="0"/>
</linearGradient>
<linearGradient id="paint40_linear_193_2269" x1="60.5726" y1="36.682" x2="60.4726" y2="31.5016" gradientUnits="userSpaceOnUse">
<stop stop-color="#E6E7E7"/>
<stop offset="1" stop-color="white"/>
</linearGradient>
<linearGradient id="paint41_linear_193_2269" x1="59.7573" y1="34.3337" x2="59.8838" y2="33.4278" gradientUnits="userSpaceOnUse">
<stop stop-color="#547134"/>
<stop offset="1" stop-color="#547134" stop-opacity="0"/>
</linearGradient>
<linearGradient id="paint42_linear_193_2269" x1="50.6894" y1="27.8446" x2="50.6055" y2="29.025" gradientUnits="userSpaceOnUse">
<stop stop-color="#CA348B"/>
<stop offset="1" stop-color="#590836"/>
</linearGradient>
<linearGradient id="paint43_linear_193_2269" x1="61.4759" y1="27.8446" x2="61.5585" y2="29.025" gradientUnits="userSpaceOnUse">
<stop stop-color="#CA348B"/>
<stop offset="1" stop-color="#590836"/>
</linearGradient>
<linearGradient id="paint44_linear_193_2269" x1="52.1269" y1="34.2999" x2="52.2534" y2="33.3926" gradientUnits="userSpaceOnUse">
<stop stop-color="#3C357E"/>
<stop offset="1" stop-color="#494582" stop-opacity="0"/>
</linearGradient>
<linearGradient id="paint45_linear_193_2269" x1="59.7662" y1="34.3009" x2="59.8927" y2="33.3936" gradientUnits="userSpaceOnUse">
<stop stop-color="#3C357E"/>
<stop offset="1" stop-color="#494582" stop-opacity="0"/>
</linearGradient>
<radialGradient id="paint46_radial_193_2269" cx="0" cy="0" r="1" gradientUnits="userSpaceOnUse" gradientTransform="translate(56.1277 43.5059) rotate(-90) scale(6.49809 5.15177)">
<stop stop-color="#35151D"/>
<stop offset="1" stop-color="#33171C" stop-opacity="0"/>
</radialGradient>
</defs>
</svg>
