<svg width="112" height="48" viewBox="0 0 112 48" fill="none" xmlns="http://www.w3.org/2000/svg">
<path d="M4.75147 22.7693C5.4074 22.7039 5.96071 22.6733 6.41585 22.6733H12.2033C12.2033 22.1803 12.1854 21.8355 12.1453 21.6435C12.0158 21.0457 11.6767 20.7446 11.1323 20.7403H7.40199C6.95577 20.5788 6.54971 20.317 6.19274 19.9504C5.52788 19.2959 5.19768 18.5017 5.19768 17.5723C5.19768 16.6428 5.52788 15.8443 6.19274 15.1853C6.398 14.9846 6.61218 14.8144 6.84422 14.6748C7.2235 14.4959 7.60724 14.4043 7.99545 14.4043C8.66031 14.4043 9.32517 14.6617 9.99449 15.1766C10.1908 15.3381 10.3961 15.4166 10.6147 15.4166C11.0029 15.4166 11.4135 15.1548 11.8552 14.6355L12.0917 14.365L11.3822 13.8457C10.4095 12.9293 9.24932 12.4668 7.89728 12.4668C6.54525 12.4668 5.27354 12.9643 4.27402 13.9635C3.27449 14.9628 2.7792 16.1628 2.7792 17.5679C2.7792 18.8377 3.18079 19.9417 3.98844 20.8712C3.25218 21.0588 2.65426 21.373 2.18573 21.8137C1.51195 22.4683 1.15944 23.0355 1.14159 23.5112C1.12374 23.9912 1.11035 24.253 1.11035 24.2966C1.11035 25.1432 1.44055 25.885 2.09649 26.5221C2.98445 27.3686 4.34987 27.7919 6.20167 27.7919H7.50015V27.4341C7.50015 26.4523 7.14318 25.9373 6.42924 25.8937L4.94334 25.7977C4.48374 25.7672 4.09107 25.6013 3.76087 25.3046C3.43067 25.0079 3.27003 24.6544 3.27003 24.2355C3.27003 23.8166 3.39944 23.4806 3.6627 23.2188C3.92597 22.957 4.29187 22.8043 4.75593 22.7606L4.75147 22.7693Z" fill="black"/>
<path d="M14.6348 9.83048L14.6437 11.0828V22.677H15.5495C16.6204 22.677 17.1559 22.3279 17.1648 21.6297V8.7832H16.2501C15.1791 8.7832 14.6437 9.13229 14.6348 9.83048Z" fill="black"/>
<path d="M49.8689 15.2502V18.1782C49.8689 19.0247 49.6681 19.6662 49.262 20.0938C48.8604 20.5258 48.2714 20.7396 47.5039 20.7396H27.8392V17.6022C27.8392 15.8611 27.3975 14.5694 26.514 13.7185C25.6305 12.8676 24.2829 12.4443 22.4713 12.4443H21.3379V12.8022C21.3379 13.8494 21.6949 14.3731 22.4088 14.3818C23.3548 14.3818 24.0732 14.6567 24.564 15.2109C25.0549 15.7651 25.3047 16.6203 25.3047 17.7811V20.7483H20.6373C19.9234 20.7527 19.5664 21.2807 19.5664 22.328V22.6858H48.2313C49.1058 22.6858 49.8466 22.5156 50.4579 22.1709C51.0692 21.8262 51.5288 21.32 51.8456 20.6436C52.2026 19.8931 52.3855 19.0727 52.3989 18.1869V14.2116H51.4842C50.4133 14.2116 49.8778 14.5607 49.8689 15.2589V15.2502Z" fill="black"/>
<path d="M50.4253 24.5754C50.2112 24.4576 49.9791 24.3965 49.7203 24.3965C49.4615 24.3965 49.2295 24.4576 49.0198 24.5754C48.81 24.6932 48.6405 24.8547 48.5155 25.0554C48.3906 25.2561 48.3281 25.483 48.3281 25.7361C48.3281 25.9892 48.3906 26.203 48.5155 26.4038C48.6405 26.6045 48.81 26.7659 49.0242 26.8838C49.2384 27.0016 49.4704 27.0627 49.7203 27.0627C49.9702 27.0627 50.2112 27.0016 50.4253 26.8838C50.6395 26.7659 50.8091 26.6045 50.934 26.4038C51.059 26.203 51.1214 25.9805 51.1214 25.7361C51.1214 25.4918 51.059 25.2605 50.934 25.0554C50.8091 24.8547 50.6395 24.6932 50.4253 24.5754Z" fill="black"/>
<path d="M55.0753 22.6731H55.9811C57.0521 22.6731 57.5875 22.324 57.5964 21.6258V8.7793H56.6817C55.6108 8.7793 55.0753 9.12839 55.0664 9.82657L55.0753 11.0789V22.6731Z" fill="black"/>
<path d="M57.824 26.4654H57.409C57.0922 26.4654 56.8111 26.4131 56.5612 26.3083C56.3113 26.2036 56.115 26.0552 55.9767 25.8632C55.8339 25.6756 55.7669 25.4618 55.7669 25.2218C55.7669 25.0691 55.8116 24.9294 55.8963 24.8029C55.9811 24.6763 56.0971 24.5803 56.2444 24.5149C56.3916 24.4494 56.5657 24.4145 56.762 24.4145C56.9851 24.4145 57.2439 24.4582 57.5384 24.5411C57.5964 24.5585 57.6544 24.5716 57.7035 24.5716C57.9846 24.5716 58.1943 24.3447 58.3327 23.8865C58.1363 23.7687 57.9355 23.6727 57.7303 23.5985C57.3733 23.4502 56.9539 23.376 56.4675 23.376C56.0659 23.376 55.7089 23.4502 55.401 23.6029C55.0887 23.7556 54.8477 23.9651 54.6737 24.2356C54.4997 24.5062 54.4104 24.8116 54.4015 25.152C54.4015 25.6276 54.5711 26.064 54.9057 26.4611L53.8438 26.4698V26.8451C53.8438 27.2683 54.0267 27.4909 54.3971 27.5083H58.3951V27.1331C58.3951 26.6923 58.2033 26.4698 57.824 26.4698V26.4654Z" fill="black"/>
<path d="M2.07876 32.7882C1.86458 32.8274 1.68609 32.8885 1.53884 32.9714C1.39159 33.0544 1.27557 33.1634 1.19525 33.2944C1.11493 33.4253 1.07031 33.5867 1.07031 33.7787C1.07031 35.8776 1.07031 37.9634 1.07477 40.0405C1.07477 42.1176 1.07924 44.2078 1.07924 46.3154V46.3329H2.0743C2.31525 46.3329 2.54282 46.3154 2.75254 46.2762C2.96226 46.2369 3.14075 46.1758 3.288 46.0929C3.43525 46.01 3.55127 45.9009 3.63159 45.77C3.71191 45.6391 3.75653 45.4776 3.75653 45.2856V32.7314H2.76147C2.52051 32.7314 2.28848 32.7489 2.07876 32.7882Z" fill="black"/>
<path d="M16.4471 40.4376C16.2285 40.167 15.9608 39.927 15.644 39.7307C15.3271 39.5299 14.7872 39.3292 14.0197 39.1241C14.6623 38.8623 15.0996 38.6354 15.3361 38.4434C15.5681 38.2557 15.7689 38.0376 15.9429 37.7932C16.1125 37.5488 16.2463 37.287 16.3356 37.0034C16.4293 36.7197 16.4739 36.4317 16.4739 36.135C16.4739 35.655 16.3847 35.2056 16.2017 34.7954C16.0188 34.3852 15.751 34.0274 15.3941 33.7219C15.0371 33.4165 14.5909 33.1765 14.0554 32.9932C13.52 32.8099 12.8997 32.7227 12.1902 32.7227H7.96459C7.72364 32.7227 7.4916 32.7401 7.28188 32.7794C7.0677 32.8187 6.88921 32.8797 6.74196 32.9627C6.59471 33.0456 6.4787 33.1547 6.39838 33.2856C6.31806 33.4165 6.27344 33.5779 6.27344 33.7699C6.27344 35.8688 6.27344 37.9547 6.2779 40.0317C6.2779 42.1088 6.28236 44.199 6.28236 46.3067V46.3241H12.2393C13.0604 46.3241 13.7788 46.2238 14.3946 46.0274C15.0103 45.8267 15.5235 45.5605 15.9295 45.2201C16.3356 44.8797 16.6435 44.4739 16.8443 44.0027C17.0495 43.5314 17.1477 43.0165 17.1477 42.4579C17.1477 42.0652 17.0852 41.6987 16.9603 41.3539C16.8354 41.0092 16.6613 40.7037 16.4427 40.4288L16.4471 40.4376ZM8.95965 34.6645H11.5477C12.3018 34.6645 12.8685 34.8216 13.2433 35.1401C13.6181 35.4587 13.8055 35.9081 13.8055 36.4928C13.8055 37.1474 13.5735 37.6361 13.105 37.9547C12.6409 38.2776 11.9939 38.4347 11.164 38.4347H8.95965V34.6601V34.6645ZM11.6682 44.3997H8.95965V40.2107H11.5611C12.4803 40.2107 13.1853 40.3808 13.6717 40.7168C14.1625 41.0528 14.4035 41.5765 14.4035 42.2921C14.4035 43.6972 13.4932 44.3997 11.6682 44.3997Z" fill="black"/>
<path d="M29.2 34.5336C28.6289 33.9576 27.9239 33.5125 27.085 33.1984C26.2461 32.8885 25.2778 32.7314 24.1801 32.7314H20.6639C20.423 32.7314 20.191 32.7489 19.9812 32.7882C19.7671 32.8274 19.5886 32.8885 19.4413 32.9714C19.2941 33.0544 19.1781 33.1634 19.0977 33.2944C19.0174 33.4253 18.9728 33.5867 18.9728 33.7787V37.514L18.9639 37.5314V46.3329H24.1801C25.2778 46.3329 26.2461 46.1758 27.0894 45.8573C27.9328 45.5387 28.6423 45.0849 29.209 44.5002C29.7801 43.9111 30.213 43.1954 30.5075 42.3533C30.802 41.5111 30.9492 40.5598 30.9492 39.4994C30.9492 38.4391 30.802 37.4922 30.503 36.6544C30.204 35.8165 29.7712 35.1096 29.2 34.5293V34.5336ZM28.022 41.1969C27.9016 41.7598 27.6784 42.2704 27.3527 42.7242C27.027 43.178 26.5897 43.5445 26.0319 43.8282C25.4741 44.1118 24.7736 44.2514 23.9213 44.2514H21.659V34.826H23.9213C24.4791 34.826 24.9744 34.8914 25.4028 35.018C25.8311 35.1445 26.2104 35.3234 26.5317 35.546C26.853 35.7685 27.1207 36.0347 27.3393 36.3402C27.558 36.6456 27.7275 36.9729 27.8525 37.3176C27.9774 37.6624 28.0667 38.0245 28.1247 38.3998C28.1827 38.7751 28.2094 39.146 28.2094 39.5125C28.2094 40.0711 28.147 40.634 28.0265 41.1969H28.022Z" fill="black"/>
<path d="M40.0431 32.7314H37.049L32.7565 44.4958C32.3281 45.6958 32.8814 46.3111 34.4119 46.3329H34.8135L36.0138 42.8289H41.0159L42.2073 46.3329H42.5107C44.2376 46.3634 44.8623 45.7525 44.3804 44.4958L40.0387 32.7314H40.0431ZM36.6073 40.9176L38.5171 35.3147L40.418 40.9176H36.6073Z" fill="black"/>
<path d="M58.3418 44.4958L54.0002 32.7314H51.0061L46.7135 44.4958C46.2851 45.6958 46.8384 46.3111 48.3689 46.3329H48.7705L49.9708 42.8289H54.9729L56.1643 46.3329H56.4677C58.1946 46.3634 58.8193 45.7525 58.3374 44.4958H58.3418ZM50.5643 40.9133L52.4741 35.3104L54.375 40.9133H50.5643Z" fill="black"/>
<path d="M102.527 8.50045C102.527 8.92372 102.491 9.30772 102.415 9.67863V9.69172L102.389 9.80517C102.384 9.82699 102.375 9.84881 102.371 9.87063L102.259 10.3201L102.237 10.3419C101.322 13.0561 98.6627 14.9281 95.673 14.9281C95.5748 14.9281 95.4722 14.9281 95.3741 14.9237C91.8356 14.7754 88.9396 11.9914 88.7924 8.58772C88.6541 5.46772 90.8271 2.64445 93.964 1.86772C94.4013 1.75863 94.8654 1.68881 95.3339 1.66699H95.4231H96.088L102.455 1.7499L102.531 8.50045H102.527Z" fill="#FF0163"/>
<path d="M80.1805 21.2204C77.1283 21.0939 74.6295 18.6895 74.4912 15.7484C74.4912 15.6699 74.4912 15.5913 74.4912 15.5128C74.4912 12.9601 76.2895 10.6561 78.8463 9.9666L79.0248 9.91424L79.2434 9.87496C79.5379 9.82696 79.8458 9.80078 80.1894 9.80078L86.3204 9.86624L86.4007 15.7702V15.8139C86.3784 16.1804 86.3204 16.5513 86.2222 16.9179C85.5261 19.523 82.9916 21.3295 80.1894 21.2161L80.1805 21.2204Z" fill="#A3E2DD"/>
<path d="M110.929 31.6627C110.929 34.8481 109.871 37.7936 108.068 40.1979C105.293 43.9114 100.746 46.3376 95.6101 46.3376H80.2871V31.6627C80.2871 27.6089 82.0006 23.939 84.7716 21.2816C87.4444 18.7245 91.1034 17.1056 95.1505 16.9921C95.3023 16.9921 95.4584 16.9834 95.6101 16.9834C96.1144 16.9834 96.6141 17.0052 97.1094 17.0489C100.742 17.3849 104.003 18.9427 106.444 21.2772C109.215 23.9347 110.929 27.6045 110.929 31.6583V31.6627Z" fill="#FF0163"/>
<path d="M93.7275 35.1138C93.7275 37.5531 92.9199 39.8047 91.55 41.6418C89.4349 44.4826 85.9768 46.3371 82.0635 46.3371H70.3994V35.1095C70.3994 32.0069 71.7024 29.2011 73.8174 27.1677C75.8522 25.2084 78.6365 23.9735 81.7199 23.8862C81.8359 23.8862 81.9519 23.8818 82.0679 23.8818C82.4517 23.8818 82.831 23.8993 83.2102 23.9342C85.9768 24.1917 88.4577 25.3829 90.3185 27.172C92.4291 29.2055 93.7365 32.0113 93.7365 35.1138H93.7275Z" fill="#A3E2DD"/>
</svg>
