<svg width="60" height="60" viewBox="0 0 60 60" fill="none" xmlns="http://www.w3.org/2000/svg">
<path d="M47.9999 58H26.1572C20.6344 58 16.1572 53.5228 16.1572 48V12C16.1572 6.47715 20.6344 2 26.1572 2H39.9379L57.9999 20.6921V48C57.9999 53.5229 53.5228 58 47.9999 58Z" fill="#EEF1F7" stroke="#CBD0DC" stroke-width="4"/>
<rect y="26.5117" width="40.4494" height="24.4186" rx="7" fill="#D82042"/>
<path d="M6.7041 44.6507V32.9805H10.7237C11.601 32.9805 12.3278 33.1457 12.9041 33.4762C13.4805 33.8067 13.9118 34.2588 14.1981 34.8324C14.4844 35.4023 14.6276 36.0443 14.6276 36.7585C14.6276 37.4765 14.4826 38.1223 14.1926 38.6959C13.9063 39.2657 13.4731 39.7178 12.8931 40.0521C12.3168 40.3826 11.5918 40.5479 10.7182 40.5479H7.95402V39.0549H10.564C11.1183 39.0549 11.568 38.9561 11.913 38.7586C12.2581 38.5572 12.5114 38.2837 12.6729 37.938C12.8344 37.5923 12.9152 37.1991 12.9152 36.7585C12.9152 36.3178 12.8344 35.9265 12.6729 35.5846C12.5114 35.2427 12.2562 34.9749 11.9075 34.7811C11.5625 34.5874 11.1073 34.4905 10.542 34.4905H8.40553V44.6507H6.7041Z" fill="white"/>
<path d="M20.2729 44.6507H16.6222V32.9805H20.3885C21.4934 32.9805 22.4424 33.2141 23.2353 33.6814C24.0282 34.1448 24.6357 34.8115 25.0578 35.6815C25.4836 36.5476 25.6966 37.5866 25.6966 38.7985C25.6966 40.0141 25.4818 41.0588 25.0523 41.9326C24.6265 42.8063 24.0098 43.4787 23.2022 43.9498C22.3946 44.417 21.4182 44.6507 20.2729 44.6507ZM18.3237 43.1121H20.1793C21.0383 43.1121 21.7522 42.945 22.3212 42.6107C22.8902 42.2726 23.316 41.7844 23.5987 41.1462C23.8813 40.5042 24.0227 39.7216 24.0227 38.7985C24.0227 37.8829 23.8813 37.1061 23.5987 36.4678C23.3197 35.8296 22.903 35.3453 22.3488 35.0148C21.7945 34.6843 21.1062 34.519 20.2839 34.519H18.3237V43.1121Z" fill="white"/>
<path d="M27.8123 44.6507V32.9805H34.8053V34.4962H29.5138V38.052H34.3042V39.562H29.5138V44.6507H27.8123Z" fill="white"/>
</svg>
