<svg width="50" height="22" viewBox="0 0 50 22" fill="none" xmlns="http://www.w3.org/2000/svg">
<path d="M2.12159 10.4615C2.41442 10.4328 2.66143 10.4195 2.86462 10.4195H5.44829C5.44829 10.2037 5.44032 10.0529 5.42239 9.96892C5.36462 9.70737 5.21323 9.57565 4.9702 9.57374H3.30486C3.10566 9.5031 2.92438 9.38856 2.76502 9.22819C2.46821 8.94183 2.32079 8.59437 2.32079 8.18774C2.32079 7.7811 2.46821 7.43174 2.76502 7.14347C2.85665 7.05565 2.95227 6.98119 3.05585 6.9201C3.22518 6.84183 3.39649 6.80174 3.5698 6.80174C3.86661 6.80174 4.16342 6.91437 4.46223 7.13965C4.54988 7.21028 4.64151 7.24465 4.73912 7.24465C4.91243 7.24465 5.0957 7.1301 5.29291 6.90292L5.39848 6.78456L5.08175 6.55737C4.64749 6.15647 4.12956 5.9541 3.52597 5.9541C2.92239 5.9541 2.35466 6.17174 1.90844 6.60892C1.46223 7.0461 1.24111 7.5711 1.24111 8.18583C1.24111 8.74137 1.4204 9.22437 1.78095 9.63101C1.45227 9.7131 1.18534 9.85056 0.976173 10.0434C0.675377 10.3297 0.518006 10.5779 0.510038 10.786C0.50207 10.996 0.496094 11.1106 0.496094 11.1296C0.496094 11.5 0.643504 11.8246 0.936333 12.1033C1.33275 12.4736 1.94231 12.6588 2.769 12.6588H3.34868V12.5023C3.34868 12.0727 3.18932 11.8475 2.8706 11.8284L2.20725 11.7864C2.00207 11.773 1.82677 11.7005 1.67936 11.5706C1.53195 11.4408 1.46024 11.2862 1.46024 11.1029C1.46024 10.9196 1.51801 10.7726 1.63554 10.6581C1.75307 10.5436 1.91641 10.4767 2.12358 10.4576L2.12159 10.4615Z" fill="white"/>
<path d="M6.53418 4.80096L6.53816 5.34886V10.4213H6.94255C7.42063 10.4213 7.65968 10.2686 7.66366 9.96314V4.34277H7.2553C6.77721 4.34277 6.53816 4.4955 6.53418 4.80096Z" fill="white"/>
<path d="M22.2632 7.17188V8.45288C22.2632 8.82324 22.1736 9.10388 21.9923 9.29097C21.813 9.47997 21.5501 9.57352 21.2075 9.57352H12.4286V8.20088C12.4286 7.43915 12.2314 6.87406 11.8369 6.50179C11.4425 6.12952 10.8409 5.94434 10.0322 5.94434H9.52619V6.10088C9.52619 6.55906 9.68555 6.78815 10.0043 6.79197C10.4266 6.79197 10.7473 6.91225 10.9664 7.1547C11.1856 7.39715 11.2971 7.77134 11.2971 8.27915V9.57734H9.21344C8.89471 9.57924 8.73535 9.81024 8.73535 10.2684V10.425H21.5322C21.9226 10.425 22.2533 10.3505 22.5262 10.1997C22.7991 10.0489 23.0043 9.82743 23.1457 9.53152C23.3051 9.20315 23.3867 8.84424 23.3927 8.4567V6.71752H22.9844C22.5063 6.71752 22.2672 6.87025 22.2632 7.1757V7.17188Z" fill="white"/>
<path d="M22.5124 11.2521C22.4168 11.2006 22.3132 11.1738 22.1977 11.1738C22.0821 11.1738 21.9786 11.2006 21.8849 11.2521C21.7913 11.3036 21.7156 11.3743 21.6598 11.4621C21.6041 11.5499 21.5762 11.6492 21.5762 11.7599C21.5762 11.8706 21.6041 11.9642 21.6598 12.052C21.7156 12.1398 21.7913 12.2105 21.8869 12.262C21.9825 12.3136 22.0861 12.3403 22.1977 12.3403C22.3092 12.3403 22.4168 12.3136 22.5124 12.262C22.608 12.2105 22.6837 12.1398 22.7395 12.052C22.7953 11.9642 22.8232 11.8668 22.8232 11.7599C22.8232 11.653 22.7953 11.5518 22.7395 11.4621C22.6837 11.3743 22.608 11.3036 22.5124 11.2521Z" fill="white"/>
<path d="M24.588 10.4194H24.9923C25.4704 10.4194 25.7095 10.2666 25.7135 9.96118V4.34082H25.3051C24.827 4.34082 24.588 4.49355 24.584 4.799L24.588 5.34691V10.4194Z" fill="white"/>
<path d="M25.815 12.0782H25.6297C25.4883 12.0782 25.3628 12.0553 25.2512 12.0095C25.1397 11.9637 25.052 11.8987 24.9903 11.8147C24.9265 11.7327 24.8967 11.6391 24.8967 11.5341C24.8967 11.4673 24.9166 11.4062 24.9544 11.3508C24.9923 11.2955 25.0441 11.2535 25.1098 11.2248C25.1755 11.1962 25.2532 11.1809 25.3409 11.1809C25.4405 11.1809 25.556 11.2 25.6875 11.2363C25.7134 11.2439 25.7393 11.2497 25.7612 11.2497C25.8867 11.2497 25.9803 11.1504 26.0421 10.9499C25.9544 10.8984 25.8648 10.8564 25.7731 10.8239C25.6138 10.759 25.4265 10.7266 25.2094 10.7266C25.0301 10.7266 24.8708 10.759 24.7333 10.8258C24.5939 10.8927 24.4863 10.9843 24.4086 11.1027C24.3309 11.221 24.2911 11.3547 24.2871 11.5036C24.2871 11.7117 24.3628 11.9026 24.5122 12.0763L24.0381 12.0801V12.2443C24.0381 12.4295 24.1198 12.5268 24.2851 12.5345H26.07V12.3703C26.07 12.1775 25.9843 12.0801 25.815 12.0801V12.0782Z" fill="white"/>
<path d="M0.928715 14.8451C0.833097 14.8623 0.753416 14.889 0.687679 14.9253C0.621942 14.9616 0.570149 15.0093 0.534293 15.0666C0.498436 15.1239 0.478516 15.1945 0.478516 15.2785C0.478516 16.1968 0.478516 17.1093 0.480508 18.018C0.480508 18.9268 0.4825 19.8412 0.4825 20.7633V20.7709H0.926723C1.03429 20.7709 1.13589 20.7633 1.22951 20.7461C1.32314 20.7289 1.40282 20.7022 1.46856 20.6659C1.53429 20.6297 1.58609 20.5819 1.62194 20.5247C1.6578 20.4674 1.67772 20.3968 1.67772 20.3128V14.8203H1.2335C1.12593 14.8203 1.02234 14.8279 0.928715 14.8451Z" fill="white"/>
<path d="M7.34261 18.1917C7.245 18.0733 7.12548 17.9683 6.98405 17.8824C6.84261 17.7946 6.60158 17.7068 6.25895 17.617C6.5458 17.5025 6.74102 17.4032 6.8466 17.3192C6.95018 17.2371 7.03983 17.1417 7.11751 17.0348C7.19321 16.9279 7.25297 16.8133 7.29281 16.6892C7.33465 16.5651 7.35457 16.4391 7.35457 16.3093C7.35457 16.0993 7.31473 15.9027 7.23305 15.7232C7.15138 15.5438 7.03186 15.3872 6.87249 15.2536C6.71313 15.12 6.51393 15.015 6.27488 14.9348C6.03584 14.8546 5.75895 14.8164 5.44222 14.8164H3.55576C3.44819 14.8164 3.34461 14.824 3.25098 14.8412C3.15536 14.8584 3.07568 14.8851 3.00994 14.9214C2.94421 14.9577 2.89241 15.0054 2.85656 15.0627C2.8207 15.12 2.80078 15.1906 2.80078 15.2746C2.80078 16.1929 2.80078 17.1054 2.80277 18.0141C2.80277 18.9229 2.80477 19.8373 2.80477 20.7594V20.767H5.46413C5.83066 20.767 6.15138 20.7231 6.42628 20.6372C6.70118 20.5494 6.93026 20.433 7.11154 20.284C7.29281 20.1351 7.43026 19.9576 7.51991 19.7514C7.61154 19.5452 7.65536 19.32 7.65536 19.0756C7.65536 18.9038 7.62747 18.7434 7.5717 18.5926C7.51592 18.4418 7.43823 18.3081 7.34062 18.1879L7.34261 18.1917ZM3.99998 15.666H5.15536C5.49202 15.666 5.745 15.7347 5.91234 15.874C6.07967 16.0134 6.16333 16.21 6.16333 16.4659C6.16333 16.7522 6.05975 16.966 5.85058 17.1054C5.64341 17.2467 5.35457 17.3154 4.98405 17.3154H3.99998V15.664V15.666ZM5.20915 19.9251H3.99998V18.0924H5.16134C5.5717 18.0924 5.88644 18.1669 6.10357 18.3139C6.32269 18.4609 6.43026 18.69 6.43026 19.003C6.43026 19.6178 6.02389 19.9251 5.20915 19.9251Z" fill="white"/>
<path d="M13.0365 15.6088C12.7815 15.3568 12.4668 15.162 12.0923 15.0246C11.7178 14.889 11.2855 14.8203 10.7955 14.8203H9.22576C9.11819 14.8203 9.01461 14.8279 8.92098 14.8451C8.82536 14.8623 8.74568 14.889 8.67994 14.9253C8.61421 14.9616 8.56241 15.0093 8.52656 15.0666C8.4907 15.1239 8.47078 15.1945 8.47078 15.2785V16.9127L8.4668 16.9203V20.7709H10.7955C11.2855 20.7709 11.7178 20.7022 12.0943 20.5629C12.4708 20.4235 12.7875 20.2249 13.0405 19.9691C13.2955 19.7114 13.4887 19.3983 13.6202 19.0299C13.7517 18.6614 13.8174 18.2452 13.8174 17.7813C13.8174 17.3174 13.7517 16.9031 13.6182 16.5366C13.4847 16.17 13.2915 15.8608 13.0365 15.6069V15.6088ZM12.5106 18.5239C12.4568 18.7702 12.3572 18.9936 12.2118 19.1921C12.0664 19.3907 11.8712 19.551 11.6222 19.6751C11.3732 19.7992 11.0604 19.8603 10.6799 19.8603H9.66998V15.7367H10.6799C10.9289 15.7367 11.1501 15.7653 11.3413 15.8207C11.5325 15.876 11.7019 15.9543 11.8453 16.0517C11.9887 16.149 12.1082 16.2655 12.2058 16.3991C12.3035 16.5328 12.3791 16.6759 12.4349 16.8268C12.4907 16.9776 12.5305 17.136 12.5564 17.3002C12.5823 17.4644 12.5943 17.6267 12.5943 17.787C12.5943 18.0314 12.5664 18.2777 12.5126 18.5239H12.5106Z" fill="white"/>
<path d="M17.8771 14.8203H16.5405L14.6241 19.9672C14.4329 20.4922 14.6799 20.7614 15.3632 20.7709H15.5425L16.0783 19.2379H18.3114L18.8433 20.7709H18.9787C19.7496 20.7843 20.0285 20.517 19.8134 19.9672L17.8751 14.8203H17.8771ZM16.3433 18.4018L17.1958 15.9505L18.0444 18.4018H16.3433Z" fill="white"/>
<path d="M26.0458 19.9672L24.1076 14.8203H22.7709L20.8546 19.9672C20.6634 20.4922 20.9104 20.7614 21.5936 20.7709H21.7729L22.3088 19.2379H24.5418L25.0737 20.7709H25.2092C25.9801 20.7843 26.259 20.517 26.0438 19.9672H26.0458ZM22.5737 18.3999L23.4263 15.9486L24.2749 18.3999H22.5737Z" fill="white"/>
<path d="M45.771 4.21913C45.771 4.40431 45.755 4.57231 45.7212 4.73458V4.74031L45.7092 4.78995C45.7072 4.79949 45.7033 4.80904 45.7013 4.81858L45.6515 5.01522L45.6415 5.02477C45.2331 6.21222 44.0459 7.03122 42.7112 7.03122C42.6674 7.03122 42.6216 7.03122 42.5778 7.02931C40.9981 6.9644 39.7052 5.7464 39.6395 4.25731C39.5778 2.89231 40.5479 1.65713 41.9483 1.31731C42.1435 1.26958 42.3507 1.23904 42.5598 1.22949H42.5997H42.8965L45.7391 1.26576L45.773 4.21913H45.771Z" fill="#D0D3DD"/>
<path d="M35.7957 9.78418C34.4332 9.72881 33.3176 8.6769 33.2559 7.39018C33.2559 7.35581 33.2559 7.32145 33.2559 7.28709C33.2559 6.17027 34.0586 5.16227 35.2001 4.86063L35.2798 4.83772L35.3774 4.82054C35.5088 4.79954 35.6463 4.78809 35.7997 4.78809L38.5367 4.81672L38.5726 7.39972V7.41881C38.5626 7.57918 38.5367 7.74145 38.4929 7.90181C38.1822 9.04154 37.0507 9.8319 35.7997 9.78227L35.7957 9.78418Z" fill="white"/>
<path d="M49.523 14.3528C49.523 15.7465 49.0509 17.0351 48.2461 18.087C47.0071 19.7117 44.9772 20.7731 42.6844 20.7731H35.8438V14.3528C35.8438 12.5793 36.6087 10.9738 37.8457 9.81112C39.039 8.69239 40.6724 7.98412 42.4792 7.93448C42.5469 7.93448 42.6167 7.93066 42.6844 7.93066C42.9095 7.93066 43.1326 7.94021 43.3537 7.9593C44.9752 8.1063 46.4314 8.78785 47.521 9.80921C48.7581 10.9718 49.523 12.5774 49.523 14.3509V14.3528Z" fill="#D0D3DD"/>
<path d="M41.8431 15.8622C41.8431 16.9294 41.4825 17.9145 40.8709 18.7182C39.9267 19.9611 38.3829 20.7724 36.6359 20.7724H31.4287V15.8603C31.4287 14.503 32.0104 13.2754 32.9546 12.3858C33.863 11.5286 35.106 10.9883 36.4825 10.9502C36.5343 10.9502 36.5861 10.9482 36.6379 10.9482C36.8092 10.9482 36.9785 10.9559 37.1478 10.9712C38.3829 11.0838 39.4905 11.605 40.3211 12.3877C41.2634 13.2773 41.847 14.5049 41.847 15.8622H41.8431Z" fill="white"/>
</svg>
