<svg width="25" height="24" viewBox="0 0 25 24" fill="none" xmlns="http://www.w3.org/2000/svg">
<path d="M0.5 12C0.5 18.6274 5.87258 24 12.5 24C19.1274 24 24.5 18.6274 24.5 12C24.5 5.37258 19.1274 0 12.5 0C5.87258 0 0.5 5.37258 0.5 12Z" fill="#25D366"/>
<path fill-rule="evenodd" clip-rule="evenodd" d="M16.7 7.725C15.575 6.6 14.075 6 12.5 6C9.2 6 6.5 8.7 6.5 12C6.5 13.05 6.8 14.1 7.325 15L6.5 18L9.65001 17.175C10.55 17.625 11.525 17.925 12.5 17.925C15.8 17.925 18.5 15.225 18.5 11.925C18.5 10.35 17.825 8.85 16.7 7.725ZM12.5 16.95C11.6 16.95 10.7 16.725 9.95 16.275L9.8 16.2L7.925 16.725L8.45 14.925L8.3 14.7C7.775 13.875 7.55 12.975 7.55 12.075C7.55 9.375 9.8 7.125 12.5 7.125C13.85 7.125 15.05 7.65 16.025 8.55C17 9.525 17.45 10.725 17.45 12.075C17.45 14.7 15.275 16.95 12.5 16.95ZM15.2 13.2C15.05 13.125 14.3 12.75 14.15 12.75C14 12.675 13.925 12.675 13.85 12.825C13.775 12.975 13.475 13.275 13.4 13.425C13.325 13.5 13.25 13.5 13.1 13.5C12.95 13.425 12.5 13.275 11.9 12.75C11.45 12.375 11.15 11.85 11.075 11.7C11 11.55 11.075 11.475 11.15 11.4C11.225 11.325 11.3 11.25 11.375 11.175C11.45 11.1 11.45 11.025 11.525 10.95C11.6 10.875 11.525 10.8 11.525 10.725C11.525 10.65 11.225 9.9 11.075 9.6C11 9.375 10.85 9.375 10.775 9.375C10.7 9.375 10.625 9.375 10.475 9.375C10.4 9.375 10.25 9.375 10.1 9.525C9.94999 9.675 9.575 10.05 9.575 10.8C9.575 11.55 10.1 12.225 10.175 12.375C10.25 12.45 11.225 14.025 12.725 14.625C14 15.15 14.225 15 14.525 15C14.825 15 15.425 14.625 15.5 14.325C15.65 13.95 15.65 13.65 15.575 13.65C15.5 13.275 15.35 13.275 15.2 13.2Z" fill="white"/>
</svg>
