<svg width="16" height="16" viewBox="0 0 16 16" fill="none" xmlns="http://www.w3.org/2000/svg">
<path d="M4.66563 0C2.09315 0 0 2.09438 0 4.6675V11.3337C0 13.9065 2.09438 16 4.6675 16H11.3337C13.9065 16 16 13.9056 16 11.3325V4.66563C16 2.09315 13.9056 0 11.3325 0H4.66563ZM12.8 2.56C13.1533 2.56 13.44 2.84672 13.44 3.2C13.44 3.55328 13.1533 3.84 12.8 3.84C12.4467 3.84 12.16 3.55328 12.16 3.2C12.16 2.84672 12.4467 2.56 12.8 2.56ZM8 3.84C10.2944 3.84 12.16 5.7056 12.16 8C12.16 10.2944 10.2941 12.16 8 12.16C5.7056 12.16 3.84 10.2941 3.84 8C3.84 5.70592 5.7056 3.84 8 3.84ZM8 5.12C6.40928 5.12 5.12 6.40928 5.12 8C5.12 9.59072 6.40928 10.88 8 10.88C9.59072 10.88 10.88 9.59072 10.88 8C10.88 6.40928 9.59072 5.12 8 5.12Z" fill="white"/>
</svg>
