<svg width="16" height="16" viewBox="0 0 16 16" fill="none" xmlns="http://www.w3.org/2000/svg">
<path d="M12.0773 4.00563C11.359 3.53735 10.8407 2.78809 10.679 1.91465C10.644 1.72594 10.6248 1.53172 10.6248 1.33301H8.33256L8.32889 10.5196C8.29036 11.5484 7.44366 12.3741 6.40568 12.3741C6.08308 12.3741 5.77931 12.2934 5.51185 12.1527C4.89853 11.8299 4.4788 11.187 4.4788 10.4472C4.4788 9.38468 5.34324 8.52023 6.40568 8.52023C6.60401 8.52023 6.79427 8.55296 6.97424 8.60933V6.26917C6.78799 6.24381 6.59876 6.22796 6.40568 6.22796C4.07919 6.22796 2.18652 8.12071 2.18652 10.4472C2.18652 11.8746 2.89969 13.1378 3.98771 13.9017C4.67303 14.3828 5.50664 14.6663 6.40568 14.6663C8.73217 14.6663 10.6248 12.7737 10.6248 10.4472V5.78879C11.5239 6.43408 12.6254 6.81434 13.814 6.81434V4.52207C13.1737 4.52207 12.5774 4.33173 12.0773 4.00563Z" fill="white"/>
</svg>
